<?xml version="1.0" encoding="UTF-8" standalone="no"?><svg xmlns="http://www.w3.org/2000/svg" xmlns:xlink="http://www.w3.org/1999/xlink" clip-rule="evenodd" stroke-miterlimit="10" viewBox="0 0 117 28"><desc>SVG generated by Keynote</desc><defs></defs><g transform="matrix(1.00, 0.00, -0.00, -1.00, 0.0, 28.0)"><text xml:space="preserve" font-family="Helvetica-Light,Helvetica" font-size="25.3" fill="#FEFFFF" transform="matrix(1.00, 0.00, -0.00, -1.00, 1.1, 7.3)">o</text><text xml:space="preserve" font-family="Helvetica-Light,Helvetica" font-size="25.3" fill="#FEFFFF" transform="matrix(1.00, 0.00, -0.00, -1.00, 15.1, 7.3)">f</text><text xml:space="preserve" font-family="Helvetica-Light,Helvetica" font-size="25.3" fill="#FEFFFF" transform="matrix(1.00, 0.00, -0.00, -1.00, 21.7, 7.3)">f</text><text xml:space="preserve" font-family="Helvetica-Light,Helvetica" font-size="25.3" fill="#FEFFFF" transform="matrix(1.00, 0.00, -0.00, -1.00, 28.7, 7.3)">-</text><text xml:space="preserve" font-family="Helvetica-Light,Helvetica" font-size="25.3" fill="#FEFFFF" transform="matrix(1.00, 0.00, -0.00, -1.00, 37.1, 7.3)">b</text><text xml:space="preserve" font-family="Helvetica-Light,Helvetica" font-size="25.3" fill="#FEFFFF" transform="matrix(1.00, 0.00, -0.00, -1.00, 52.6, 7.3)">y</text><text xml:space="preserve" font-family="Helvetica-Light,Helvetica" font-size="25.3" fill="#FEFFFF" transform="matrix(1.00, 0.00, -0.00, -1.00, 65.2, 7.3)">-</text><text xml:space="preserve" font-family="Helvetica-Light,Helvetica" font-size="25.3" fill="#FEFFFF" transform="matrix(1.00, 0.00, -0.00, -1.00, 73.6, 7.3)">o</text><text xml:space="preserve" font-family="Helvetica-Light,Helvetica" font-size="25.3" fill="#FEFFFF" transform="matrix(1.00, 0.00, -0.00, -1.00, 87.7, 7.3)">n</text><text xml:space="preserve" font-family="Helvetica-Light,Helvetica" font-size="25.3" fill="#FEFFFF" transform="matrix(1.00, 0.00, -0.00, -1.00, 101.8, 7.3)">e</text></g></svg>