<?xml version="1.0" encoding="UTF-8" standalone="no"?><svg xmlns="http://www.w3.org/2000/svg" xmlns:xlink="http://www.w3.org/1999/xlink" clip-rule="evenodd" stroke-miterlimit="10" viewBox="0 0 114 28"><desc>SVG generated by Keynote</desc><defs></defs><g transform="matrix(1.00, 0.00, -0.00, -1.00, 0.0, 28.0)"><text xml:space="preserve" font-family="Helvetica-Light,Helvetica" font-size="25.3" fill="#FEFFFF" transform="matrix(1.00, 0.00, -0.00, -1.00, -0.3, 7.3)">r</text><text xml:space="preserve" font-family="Helvetica-Light,Helvetica" font-size="25.3" fill="#FEFFFF" transform="matrix(1.00, 0.00, -0.00, -1.00, 7.6, 7.3)">e</text><text xml:space="preserve" font-family="Helvetica-Light,Helvetica" font-size="25.3" fill="#FEFFFF" transform="matrix(1.00, 0.00, -0.00, -1.00, 21.7, 7.3)">p</text><text xml:space="preserve" font-family="Helvetica-Light,Helvetica" font-size="25.3" fill="#FEFFFF" transform="matrix(1.00, 0.00, -0.00, -1.00, 37.1, 7.3)">o</text><text xml:space="preserve" font-family="Helvetica-Light,Helvetica" font-size="25.3" fill="#FEFFFF" transform="matrix(1.00, 0.00, -0.00, -1.00, 51.2, 7.3)">s</text><text xml:space="preserve" font-family="Helvetica-Light,Helvetica" font-size="25.3" fill="#FEFFFF" transform="matrix(1.00, 0.00, -0.00, -1.00, 63.8, 7.3)">i</text><text xml:space="preserve" font-family="Helvetica-Light,Helvetica" font-size="25.3" fill="#FEFFFF" transform="matrix(1.00, 0.00, -0.00, -1.00, 69.4, 7.3)">t</text><text xml:space="preserve" font-family="Helvetica-Light,Helvetica" font-size="25.3" fill="#FEFFFF" transform="matrix(1.00, 0.00, -0.00, -1.00, 76.5, 7.3)">o</text><text xml:space="preserve" font-family="Helvetica-Light,Helvetica" font-size="25.3" fill="#FEFFFF" transform="matrix(1.00, 0.00, -0.00, -1.00, 90.5, 7.3)">r</text><text xml:space="preserve" font-family="Helvetica-Light,Helvetica" font-size="25.3" fill="#FEFFFF" transform="matrix(1.00, 0.00, -0.00, -1.00, 99.4, 7.3)">y</text></g></svg>