<?xml version="1.0" encoding="UTF-8" standalone="no"?><svg xmlns="http://www.w3.org/2000/svg" xmlns:xlink="http://www.w3.org/1999/xlink" clip-rule="evenodd" stroke-miterlimit="10" viewBox="0 0 94 23"><desc>SVG generated by Keynote</desc><defs></defs><g transform="matrix(1.00, 0.00, -0.00, -1.00, 0.0, 23.0)"><text xml:space="preserve" font-family="Helvetica-Light,Helvetica" font-size="25.3" fill="#FEFFFF" transform="matrix(1.00, 0.00, -0.00, -1.00, -0.0, 2.3)">i</text><text xml:space="preserve" font-family="Helvetica-Light,Helvetica" font-size="25.3" fill="#FEFFFF" transform="matrix(1.00, 0.00, -0.00, -1.00, 5.6, 2.3)">n</text><text xml:space="preserve" font-family="Helvetica-Light,Helvetica" font-size="25.3" fill="#FEFFFF" transform="matrix(1.00, 0.00, -0.00, -1.00, 19.6, 2.3)">s</text><text xml:space="preserve" font-family="Helvetica-Light,Helvetica" font-size="25.3" fill="#FEFFFF" transform="matrix(1.00, 0.00, -0.00, -1.00, 32.3, 2.3)">t</text><text xml:space="preserve" font-family="Helvetica-Light,Helvetica" font-size="25.3" fill="#FEFFFF" transform="matrix(1.00, 0.00, -0.00, -1.00, 39.3, 2.3)">a</text><text xml:space="preserve" font-family="Helvetica-Light,Helvetica" font-size="25.3" fill="#FEFFFF" transform="matrix(1.00, 0.00, -0.00, -1.00, 53.4, 2.3)">l</text><text xml:space="preserve" font-family="Helvetica-Light,Helvetica" font-size="25.3" fill="#FEFFFF" transform="matrix(1.00, 0.00, -0.00, -1.00, 59.0, 2.3)">l</text><text xml:space="preserve" font-family="Helvetica-Light,Helvetica" font-size="25.3" fill="#FEFFFF" transform="matrix(1.00, 0.00, -0.00, -1.00, 64.6, 2.3)">e</text><text xml:space="preserve" font-family="Helvetica-Light,Helvetica" font-size="25.3" fill="#FEFFFF" transform="matrix(1.00, 0.00, -0.00, -1.00, 78.6, 2.3)">d</text></g></svg>