<?xml version="1.0" encoding="UTF-8" standalone="no"?><svg xmlns="http://www.w3.org/2000/svg" xmlns:xlink="http://www.w3.org/1999/xlink" clip-rule="evenodd" stroke-miterlimit="10" viewBox="0 0 159 28"><desc>SVG generated by Keynote</desc><defs></defs><g transform="matrix(1.00, 0.00, -0.00, -1.00, 0.0, 28.0)"><text xml:space="preserve" font-family="Helvetica-Light,Helvetica" font-size="25.3" fill="#FEFFFF" transform="matrix(1.00, 0.00, -0.00, -1.00, -0.1, 7.0)">b</text><text xml:space="preserve" font-family="Helvetica-Light,Helvetica" font-size="25.3" fill="#FEFFFF" transform="matrix(1.00, 0.00, -0.00, -1.00, 15.4, 7.0)">o</text><text xml:space="preserve" font-family="Helvetica-Light,Helvetica" font-size="25.3" fill="#FEFFFF" transform="matrix(1.00, 0.00, -0.00, -1.00, 29.4, 7.0)">o</text><text xml:space="preserve" font-family="Helvetica-Light,Helvetica" font-size="25.3" fill="#FEFFFF" transform="matrix(1.00, 0.00, -0.00, -1.00, 43.5, 7.0)">t</text><text xml:space="preserve" font-family="Helvetica-Light,Helvetica" font-size="25.3" fill="#FEFFFF" transform="matrix(1.00, 0.00, -0.00, -1.00, 50.5, 7.0)">s</text><text xml:space="preserve" font-family="Helvetica-Light,Helvetica" font-size="25.3" fill="#FEFFFF" transform="matrix(1.00, 0.00, -0.00, -1.00, 63.2, 7.0)">t</text><text xml:space="preserve" font-family="Helvetica-Light,Helvetica" font-size="25.3" fill="#FEFFFF" transform="matrix(1.00, 0.00, -0.00, -1.00, 70.2, 7.0)">r</text><text xml:space="preserve" font-family="Helvetica-Light,Helvetica" font-size="25.3" fill="#FEFFFF" transform="matrix(1.00, 0.00, -0.00, -1.00, 78.6, 7.0)">a</text><text xml:space="preserve" font-family="Helvetica-Light,Helvetica" font-size="25.3" fill="#FEFFFF" transform="matrix(1.00, 0.00, -0.00, -1.00, 92.7, 7.0)">p</text><text xml:space="preserve" font-family="Helvetica-Light,Helvetica" font-size="25.3" fill="#FEFFFF" transform="matrix(1.00, 0.00, -0.00, -1.00, 108.1, 7.0)">p</text><text xml:space="preserve" font-family="Helvetica-Light,Helvetica" font-size="25.3" fill="#FEFFFF" transform="matrix(1.00, 0.00, -0.00, -1.00, 123.6, 7.0)">i</text><text xml:space="preserve" font-family="Helvetica-Light,Helvetica" font-size="25.3" fill="#FEFFFF" transform="matrix(1.00, 0.00, -0.00, -1.00, 129.2, 7.0)">n</text><text xml:space="preserve" font-family="Helvetica-Light,Helvetica" font-size="25.3" fill="#FEFFFF" transform="matrix(1.00, 0.00, -0.00, -1.00, 143.2, 7.0)">g</text></g></svg>