<?xml version="1.0" encoding="UTF-8" standalone="no"?><svg xmlns="http://www.w3.org/2000/svg" xmlns:xlink="http://www.w3.org/1999/xlink" clip-rule="evenodd" stroke-miterlimit="10" viewBox="0 0 1024 768"><desc>SVG generated by Keynote</desc><defs></defs><g transform="matrix(1.00, 0.00, -0.00, -1.00, 0.0, 768.0)"><path d="M 0.0 768.0 L 1024.0 768.0 L 1024.0 0.0 L 0.0 0.0 Z M 0.0 768.0 " fill="#000000"></path><g><clipPath id="clip0x6080024b8120"><path d="M 128.0 716.0 L 896.0 716.0 L 896.0 251.0 L 128.0 251.0 Z M 127.5 716.0 "></path></clipPath><g clip-path="url(#clip0x6080024b8120)"><image xlink:href="../../FC238C8B-CC6B-404B-B23C-3B18A8015E7B/assets/2900D37A107AAA89BFEB4434F451EDA3.png" width="1514.00" height="724.00" transform="matrix(0.64, 0.00, -0.00, -0.64, 125.0, 716.0)"></image></g></g><text xml:space="preserve" font-family="Helvetica-Light,Helvetica" font-size="73.6" fill="#FEFFFF" transform="matrix(1.00, 0.00, -0.00, -1.00, 105.0, 154.9)">A</text><text xml:space="preserve" font-family="Helvetica-Light,Helvetica" font-size="73.6" fill="#FEFFFF" transform="matrix(1.00, 0.00, -0.00, -1.00, 154.1, 154.9)">c</text><text xml:space="preserve" font-family="Helvetica-Light,Helvetica" font-size="73.6" fill="#FEFFFF" transform="matrix(1.00, 0.00, -0.00, -1.00, 195.0, 154.9)">t</text><text xml:space="preserve" font-family="Helvetica-Light,Helvetica" font-size="73.6" fill="#FEFFFF" transform="matrix(1.00, 0.00, -0.00, -1.00, 215.5, 154.9)">u</text><text xml:space="preserve" font-family="Helvetica-Light,Helvetica" font-size="73.6" fill="#FEFFFF" transform="matrix(1.00, 0.00, -0.00, -1.00, 256.4, 154.9)">a</text><text xml:space="preserve" font-family="Helvetica-Light,Helvetica" font-size="73.6" fill="#FEFFFF" transform="matrix(1.00, 0.00, -0.00, -1.00, 297.3, 154.9)">l</text><text xml:space="preserve" font-family="Helvetica-Light,Helvetica" font-size="73.6" fill="#FEFFFF" transform="matrix(1.00, 0.00, -0.00, -1.00, 313.6, 154.9)">l</text><text xml:space="preserve" font-family="Helvetica-Light,Helvetica" font-size="73.6" fill="#FEFFFF" transform="matrix(1.00, 0.00, -0.00, -1.00, 330.0, 154.9)">y</text><text xml:space="preserve" font-family="Helvetica-Light,Helvetica" font-size="73.6" fill="#FEFFFF" transform="matrix(1.00, 0.00, -0.00, -1.00, 366.8, 154.9)"> </text><text xml:space="preserve" font-family="Helvetica-Light,Helvetica" font-size="73.6" fill="#FEFFFF" transform="matrix(1.00, 0.00, -0.00, -1.00, 387.2, 154.9)">t</text><text xml:space="preserve" font-family="Helvetica-Light,Helvetica" font-size="73.6" fill="#FEFFFF" transform="matrix(1.00, 0.00, -0.00, -1.00, 407.7, 154.9)">o</text><text xml:space="preserve" font-family="Helvetica-Light,Helvetica" font-size="73.6" fill="#FEFFFF" transform="matrix(1.00, 0.00, -0.00, -1.00, 448.6, 154.9)">o</text><text xml:space="preserve" font-family="Helvetica-Light,Helvetica" font-size="73.6" fill="#FEFFFF" transform="matrix(1.00, 0.00, -0.00, -1.00, 489.6, 154.9)"> </text><text xml:space="preserve" font-family="Helvetica-Light,Helvetica" font-size="73.6" fill="#FEFFFF" transform="matrix(1.00, 0.00, -0.00, -1.00, 510.0, 154.9)">c</text><text xml:space="preserve" font-family="Helvetica-Light,Helvetica" font-size="73.6" fill="#FEFFFF" transform="matrix(1.00, 0.00, -0.00, -1.00, 550.9, 154.9)">o</text><text xml:space="preserve" font-family="Helvetica-Light,Helvetica" font-size="73.6" fill="#FEFFFF" transform="matrix(1.00, 0.00, -0.00, -1.00, 591.9, 154.9)">m</text><text xml:space="preserve" font-family="Helvetica-Light,Helvetica" font-size="73.6" fill="#FEFFFF" transform="matrix(1.00, 0.00, -0.00, -1.00, 653.2, 154.9)">p</text><text xml:space="preserve" font-family="Helvetica-Light,Helvetica" font-size="73.6" fill="#FEFFFF" transform="matrix(1.00, 0.00, -0.00, -1.00, 698.1, 154.9)">l</text><text xml:space="preserve" font-family="Helvetica-Light,Helvetica" font-size="73.6" fill="#FEFFFF" transform="matrix(1.00, 0.00, -0.00, -1.00, 714.5, 154.9)">i</text><text xml:space="preserve" font-family="Helvetica-Light,Helvetica" font-size="73.6" fill="#FEFFFF" transform="matrix(1.00, 0.00, -0.00, -1.00, 730.8, 154.9)">c</text><text xml:space="preserve" font-family="Helvetica-Light,Helvetica" font-size="73.6" fill="#FEFFFF" transform="matrix(1.00, 0.00, -0.00, -1.00, 771.7, 154.9)">a</text><text xml:space="preserve" font-family="Helvetica-Light,Helvetica" font-size="73.6" fill="#FEFFFF" transform="matrix(1.00, 0.00, -0.00, -1.00, 812.7, 154.9)">t</text><text xml:space="preserve" font-family="Helvetica-Light,Helvetica" font-size="73.6" fill="#FEFFFF" transform="matrix(1.00, 0.00, -0.00, -1.00, 833.1, 154.9)">e</text><text xml:space="preserve" font-family="Helvetica-Light,Helvetica" font-size="73.6" fill="#FEFFFF" transform="matrix(1.00, 0.00, -0.00, -1.00, 874.0, 154.9)">d</text><text xml:space="preserve" font-family="Helvetica-Light,Helvetica" font-size="32.0" fill="#FEFFFF" transform="matrix(1.00, 0.00, -0.00, -1.00, 254.8, 88.4)">C</text><text xml:space="preserve" font-family="Helvetica-Light,Helvetica" font-size="32.0" fill="#FEFFFF" transform="matrix(1.00, 0.00, -0.00, -1.00, 277.9, 88.4)">o</text><text xml:space="preserve" font-family="Helvetica-Light,Helvetica" font-size="32.0" fill="#FEFFFF" transform="matrix(1.00, 0.00, -0.00, -1.00, 295.7, 88.4)">p</text><text xml:space="preserve" font-family="Helvetica-Light,Helvetica" font-size="32.0" fill="#FEFFFF" transform="matrix(1.00, 0.00, -0.00, -1.00, 315.3, 88.4)">y</text><text xml:space="preserve" font-family="Helvetica-Light,Helvetica" font-size="32.0" fill="#FEFFFF" transform="matrix(1.00, 0.00, -0.00, -1.00, 331.3, 88.4)"> </text><text xml:space="preserve" font-family="Helvetica-Light,Helvetica" font-size="32.0" fill="#FEFFFF" transform="matrix(1.00, 0.00, -0.00, -1.00, 340.2, 88.4)">+</text><text xml:space="preserve" font-family="Helvetica-Light,Helvetica" font-size="32.0" fill="#FEFFFF" transform="matrix(1.00, 0.00, -0.00, -1.00, 361.3, 88.4)"> </text><text xml:space="preserve" font-family="Helvetica-Light,Helvetica" font-size="32.0" fill="#FEFFFF" transform="matrix(1.00, 0.00, -0.00, -1.00, 370.2, 88.4)">p</text><text xml:space="preserve" font-family="Helvetica-Light,Helvetica" font-size="32.0" fill="#FEFFFF" transform="matrix(1.00, 0.00, -0.00, -1.00, 389.7, 88.4)">a</text><text xml:space="preserve" font-family="Helvetica-Light,Helvetica" font-size="32.0" fill="#FEFFFF" transform="matrix(1.00, 0.00, -0.00, -1.00, 407.5, 88.4)">s</text><text xml:space="preserve" font-family="Helvetica-Light,Helvetica" font-size="32.0" fill="#FEFFFF" transform="matrix(1.00, 0.00, -0.00, -1.00, 423.5, 88.4)">t</text><text xml:space="preserve" font-family="Helvetica-Light,Helvetica" font-size="32.0" fill="#FEFFFF" transform="matrix(1.00, 0.00, -0.00, -1.00, 432.4, 88.4)">e</text><text xml:space="preserve" font-family="Helvetica-Light,Helvetica" font-size="32.0" fill="#FEFFFF" transform="matrix(1.00, 0.00, -0.00, -1.00, 450.2, 88.4)"> </text><text xml:space="preserve" font-family="Helvetica-Light,Helvetica" font-size="32.0" fill="#FEFFFF" transform="matrix(1.00, 0.00, -0.00, -1.00, 459.1, 88.4)">i</text><text xml:space="preserve" font-family="Helvetica-Light,Helvetica" font-size="32.0" fill="#FEFFFF" transform="matrix(1.00, 0.00, -0.00, -1.00, 466.2, 88.4)">n</text><text xml:space="preserve" font-family="Helvetica-Light,Helvetica" font-size="32.0" fill="#FEFFFF" transform="matrix(1.00, 0.00, -0.00, -1.00, 484.0, 88.4)">s</text><text xml:space="preserve" font-family="Helvetica-Light,Helvetica" font-size="32.0" fill="#FEFFFF" transform="matrix(1.00, 0.00, -0.00, -1.00, 500.0, 88.4)">t</text><text xml:space="preserve" font-family="Helvetica-Light,Helvetica" font-size="32.0" fill="#FEFFFF" transform="matrix(1.00, 0.00, -0.00, -1.00, 508.9, 88.4)">r</text><text xml:space="preserve" font-family="Helvetica-Light,Helvetica" font-size="32.0" fill="#FEFFFF" transform="matrix(1.00, 0.00, -0.00, -1.00, 519.6, 88.4)">u</text><text xml:space="preserve" font-family="Helvetica-Light,Helvetica" font-size="32.0" fill="#FEFFFF" transform="matrix(1.00, 0.00, -0.00, -1.00, 537.3, 88.4)">c</text><text xml:space="preserve" font-family="Helvetica-Light,Helvetica" font-size="32.0" fill="#FEFFFF" transform="matrix(1.00, 0.00, -0.00, -1.00, 555.1, 88.4)">t</text><text xml:space="preserve" font-family="Helvetica-Light,Helvetica" font-size="32.0" fill="#FEFFFF" transform="matrix(1.00, 0.00, -0.00, -1.00, 564.0, 88.4)">i</text><text xml:space="preserve" font-family="Helvetica-Light,Helvetica" font-size="32.0" fill="#FEFFFF" transform="matrix(1.00, 0.00, -0.00, -1.00, 571.1, 88.4)">o</text><text xml:space="preserve" font-family="Helvetica-Light,Helvetica" font-size="32.0" fill="#FEFFFF" transform="matrix(1.00, 0.00, -0.00, -1.00, 588.9, 88.4)">n</text><text xml:space="preserve" font-family="Helvetica-Light,Helvetica" font-size="32.0" fill="#FEFFFF" transform="matrix(1.00, 0.00, -0.00, -1.00, 606.7, 88.4)">s</text><text xml:space="preserve" font-family="Helvetica-Light,Helvetica" font-size="32.0" fill="#FEFFFF" transform="matrix(1.00, 0.00, -0.00, -1.00, 622.7, 88.4)"> </text><text xml:space="preserve" font-family="Helvetica-Light,Helvetica" font-size="32.0" fill="#FEFFFF" transform="matrix(1.00, 0.00, -0.00, -1.00, 631.6, 88.4)">a</text><text xml:space="preserve" font-family="Helvetica-Light,Helvetica" font-size="32.0" fill="#FEFFFF" transform="matrix(1.00, 0.00, -0.00, -1.00, 649.4, 88.4)">r</text><text xml:space="preserve" font-family="Helvetica-Light,Helvetica" font-size="32.0" fill="#FEFFFF" transform="matrix(1.00, 0.00, -0.00, -1.00, 659.5, 88.4)">e</text><text xml:space="preserve" font-family="Helvetica-Light,Helvetica" font-size="32.0" fill="#FEFFFF" transform="matrix(1.00, 0.00, -0.00, -1.00, 677.3, 88.4)"> </text><text xml:space="preserve" font-family="Helvetica-Light,Helvetica" font-size="32.0" fill="#FEFFFF" transform="matrix(1.00, 0.00, -0.00, -1.00, 686.2, 88.4)">g</text><text xml:space="preserve" font-family="Helvetica-Light,Helvetica" font-size="32.0" fill="#FEFFFF" transform="matrix(1.00, 0.00, -0.00, -1.00, 705.7, 88.4)">r</text><text xml:space="preserve" font-family="Helvetica-Light,Helvetica" font-size="32.0" fill="#FEFFFF" transform="matrix(1.00, 0.00, -0.00, -1.00, 715.8, 88.4)">e</text><text xml:space="preserve" font-family="Helvetica-Light,Helvetica" font-size="32.0" fill="#FEFFFF" transform="matrix(1.00, 0.00, -0.00, -1.00, 733.6, 88.4)">a</text><text xml:space="preserve" font-family="Helvetica-Light,Helvetica" font-size="32.0" fill="#FEFFFF" transform="matrix(1.00, 0.00, -0.00, -1.00, 751.4, 88.4)">t</text><text xml:space="preserve" font-family="Helvetica-Light,Helvetica" font-size="32.0" fill="#FEFFFF" transform="matrix(1.00, 0.00, -0.00, -1.00, 760.3, 88.4)">.</text><text xml:space="preserve" font-family="Helvetica-Light,Helvetica" font-size="32.0" fill="#FEFFFF" transform="matrix(1.00, 0.00, -0.00, -1.00, 769.2, 88.4)"> </text><text xml:space="preserve" font-family="Helvetica-Light,Helvetica" font-size="32.0" fill="#FEFFFF" transform="matrix(1.00, 0.00, -0.00, -1.00, 339.8, 50.4)">I</text><text xml:space="preserve" font-family="Helvetica-Light,Helvetica" font-size="32.0" fill="#FEFFFF" transform="matrix(1.00, 0.00, -0.00, -1.00, 348.7, 50.4)">t</text><text xml:space="preserve" font-family="Helvetica-Light,Helvetica" font-size="32.0" fill="#FEFFFF" transform="matrix(1.00, 0.00, -0.00, -1.00, 357.6, 50.4)"> </text><text xml:space="preserve" font-family="Helvetica-Light,Helvetica" font-size="32.0" fill="#FEFFFF" transform="matrix(1.00, 0.00, -0.00, -1.00, 366.4, 50.4)">s</text><text xml:space="preserve" font-family="Helvetica-Light,Helvetica" font-size="32.0" fill="#FEFFFF" transform="matrix(1.00, 0.00, -0.00, -1.00, 382.4, 50.4)">h</text><text xml:space="preserve" font-family="Helvetica-Light,Helvetica" font-size="32.0" fill="#FEFFFF" transform="matrix(1.00, 0.00, -0.00, -1.00, 400.2, 50.4)">o</text><text xml:space="preserve" font-family="Helvetica-Light,Helvetica" font-size="32.0" fill="#FEFFFF" transform="matrix(1.00, 0.00, -0.00, -1.00, 418.0, 50.4)">u</text><text xml:space="preserve" font-family="Helvetica-Light,Helvetica" font-size="32.0" fill="#FEFFFF" transform="matrix(1.00, 0.00, -0.00, -1.00, 435.8, 50.4)">l</text><text xml:space="preserve" font-family="Helvetica-Light,Helvetica" font-size="32.0" fill="#FEFFFF" transform="matrix(1.00, 0.00, -0.00, -1.00, 442.9, 50.4)">d</text><text xml:space="preserve" font-family="Helvetica-Light,Helvetica" font-size="32.0" fill="#FEFFFF" transform="matrix(1.00, 0.00, -0.00, -1.00, 462.5, 50.4)"> </text><text xml:space="preserve" font-family="Helvetica-Light,Helvetica" font-size="32.0" fill="#FEFFFF" transform="matrix(1.00, 0.00, -0.00, -1.00, 471.4, 50.4)">ï¬</text><text xml:space="preserve" font-family="Helvetica-Light,Helvetica" font-size="32.0" fill="#FEFFFF" transform="matrix(1.00, 0.00, -0.00, -1.00, 487.4, 50.4)">t</text><text xml:space="preserve" font-family="Helvetica-Light,Helvetica" font-size="32.0" fill="#FEFFFF" transform="matrix(1.00, 0.00, -0.00, -1.00, 496.3, 50.4)"> </text><text xml:space="preserve" font-family="Helvetica-Light,Helvetica" font-size="32.0" fill="#FEFFFF" transform="matrix(1.00, 0.00, -0.00, -1.00, 505.2, 50.4)">o</text><text xml:space="preserve" font-family="Helvetica-Light,Helvetica" font-size="32.0" fill="#FEFFFF" transform="matrix(1.00, 0.00, -0.00, -1.00, 523.0, 50.4)">n</text><text xml:space="preserve" font-family="Helvetica-Light,Helvetica" font-size="32.0" fill="#FEFFFF" transform="matrix(1.00, 0.00, -0.00, -1.00, 540.8, 50.4)"> </text><text xml:space="preserve" font-family="Helvetica-Light,Helvetica" font-size="32.0" fill="#FEFFFF" transform="matrix(1.00, 0.00, -0.00, -1.00, 549.6, 50.4)">a</text><text xml:space="preserve" font-family="Helvetica-Light,Helvetica" font-size="32.0" fill="#FEFFFF" transform="matrix(1.00, 0.00, -0.00, -1.00, 567.4, 50.4)"> </text><text xml:space="preserve" font-family="Helvetica-Light,Helvetica" font-size="32.0" fill="#FEFFFF" transform="matrix(1.00, 0.00, -0.00, -1.00, 576.3, 50.4)">s</text><text xml:space="preserve" font-family="Helvetica-Light,Helvetica" font-size="32.0" fill="#FEFFFF" transform="matrix(1.00, 0.00, -0.00, -1.00, 592.3, 50.4)">c</text><text xml:space="preserve" font-family="Helvetica-Light,Helvetica" font-size="32.0" fill="#FEFFFF" transform="matrix(1.00, 0.00, -0.00, -1.00, 610.1, 50.4)">r</text><text xml:space="preserve" font-family="Helvetica-Light,Helvetica" font-size="32.0" fill="#FEFFFF" transform="matrix(1.00, 0.00, -0.00, -1.00, 620.2, 50.4)">e</text><text xml:space="preserve" font-family="Helvetica-Light,Helvetica" font-size="32.0" fill="#FEFFFF" transform="matrix(1.00, 0.00, -0.00, -1.00, 638.0, 50.4)">e</text><text xml:space="preserve" font-family="Helvetica-Light,Helvetica" font-size="32.0" fill="#FEFFFF" transform="matrix(1.00, 0.00, -0.00, -1.00, 655.8, 50.4)">n</text><text xml:space="preserve" font-family="Helvetica-Light,Helvetica" font-size="32.0" fill="#FEFFFF" transform="matrix(1.00, 0.00, -0.00, -1.00, 673.6, 50.4)">!</text></g></svg>