<?xml version="1.0" encoding="UTF-8" standalone="no"?><svg xmlns="http://www.w3.org/2000/svg" xmlns:xlink="http://www.w3.org/1999/xlink" clip-rule="evenodd" stroke-miterlimit="10" viewBox="0 0 1024 768"><desc>SVG generated by Keynote</desc><defs></defs><g transform="matrix(1.00, 0.00, -0.00, -1.00, 0.0, 768.0)"><path d="M 0.0 768.0 L 1024.0 768.0 L 1024.0 0.0 L 0.0 0.0 Z M 0.0 768.0 " fill="#000000"></path><g><clipPath id="clip0x6000014b7040"><path d="M 128.0 716.0 L 896.0 716.0 L 896.0 251.0 L 128.0 251.0 Z M 127.5 716.0 "></path></clipPath><g clip-path="url(#clip0x6000014b7040)"><image xlink:href="../../12F2DEAB-B6D1-478E-B20B-90286923510E/assets/B7476567864280C563D0D5132F928596.jpeg" width="1500.00" height="1500.00" transform="matrix(0.51, 0.00, -0.00, -0.51, 128.0, 868.0)"></image></g></g><text xml:space="preserve" font-family="Helvetica-Light,Helvetica" font-size="79.2" fill="#FEFFFF" transform="matrix(1.00, 0.00, -0.00, -1.00, 105.0, 153.2)">E</text><text xml:space="preserve" font-family="Helvetica-Light,Helvetica" font-size="79.2" fill="#FEFFFF" transform="matrix(1.00, 0.00, -0.00, -1.00, 153.3, 153.2)">l</text><text xml:space="preserve" font-family="Helvetica-Light,Helvetica" font-size="79.2" fill="#FEFFFF" transform="matrix(1.00, 0.00, -0.00, -1.00, 170.9, 153.2)">i</text><text xml:space="preserve" font-family="Helvetica-Light,Helvetica" font-size="79.2" fill="#FEFFFF" transform="matrix(1.00, 0.00, -0.00, -1.00, 188.5, 153.2)">m</text><text xml:space="preserve" font-family="Helvetica-Light,Helvetica" font-size="79.2" fill="#FEFFFF" transform="matrix(1.00, 0.00, -0.00, -1.00, 254.5, 153.2)">i</text><text xml:space="preserve" font-family="Helvetica-Light,Helvetica" font-size="79.2" fill="#FEFFFF" transform="matrix(1.00, 0.00, -0.00, -1.00, 272.1, 153.2)">n</text><text xml:space="preserve" font-family="Helvetica-Light,Helvetica" font-size="79.2" fill="#FEFFFF" transform="matrix(1.00, 0.00, -0.00, -1.00, 316.1, 153.2)">a</text><text xml:space="preserve" font-family="Helvetica-Light,Helvetica" font-size="79.2" fill="#FEFFFF" transform="matrix(1.00, 0.00, -0.00, -1.00, 360.1, 153.2)">t</text><text xml:space="preserve" font-family="Helvetica-Light,Helvetica" font-size="79.2" fill="#FEFFFF" transform="matrix(1.00, 0.00, -0.00, -1.00, 382.2, 153.2)">e</text><text xml:space="preserve" font-family="Helvetica-Light,Helvetica" font-size="79.2" fill="#FEFFFF" transform="matrix(1.00, 0.00, -0.00, -1.00, 426.2, 153.2)"> </text><text xml:space="preserve" font-family="Helvetica-Light,Helvetica" font-size="79.2" fill="#FEFFFF" transform="matrix(1.00, 0.00, -0.00, -1.00, 448.2, 153.2)">ï¬</text><text xml:space="preserve" font-family="Helvetica-Light,Helvetica" font-size="79.2" fill="#FEFFFF" transform="matrix(1.00, 0.00, -0.00, -1.00, 487.8, 153.2)">r</text><text xml:space="preserve" font-family="Helvetica-Light,Helvetica" font-size="79.2" fill="#FEFFFF" transform="matrix(1.00, 0.00, -0.00, -1.00, 514.2, 153.2)">s</text><text xml:space="preserve" font-family="Helvetica-Light,Helvetica" font-size="79.2" fill="#FEFFFF" transform="matrix(1.00, 0.00, -0.00, -1.00, 553.8, 153.2)">t</text><text xml:space="preserve" font-family="Helvetica-Light,Helvetica" font-size="79.2" fill="#FEFFFF" transform="matrix(1.00, 0.00, -0.00, -1.00, 575.8, 153.2)">-</text><text xml:space="preserve" font-family="Helvetica-Light,Helvetica" font-size="79.2" fill="#FEFFFF" transform="matrix(1.00, 0.00, -0.00, -1.00, 602.2, 153.2)">r</text><text xml:space="preserve" font-family="Helvetica-Light,Helvetica" font-size="79.2" fill="#FEFFFF" transform="matrix(1.00, 0.00, -0.00, -1.00, 628.5, 153.2)">u</text><text xml:space="preserve" font-family="Helvetica-Light,Helvetica" font-size="79.2" fill="#FEFFFF" transform="matrix(1.00, 0.00, -0.00, -1.00, 672.6, 153.2)">n</text><text xml:space="preserve" font-family="Helvetica-Light,Helvetica" font-size="79.2" fill="#FEFFFF" transform="matrix(1.00, 0.00, -0.00, -1.00, 716.6, 153.2)"> </text><text xml:space="preserve" font-family="Helvetica-Light,Helvetica" font-size="79.2" fill="#FEFFFF" transform="matrix(1.00, 0.00, -0.00, -1.00, 738.6, 153.2)">b</text><text xml:space="preserve" font-family="Helvetica-Light,Helvetica" font-size="79.2" fill="#FEFFFF" transform="matrix(1.00, 0.00, -0.00, -1.00, 787.0, 153.2)">u</text><text xml:space="preserve" font-family="Helvetica-Light,Helvetica" font-size="79.2" fill="#FEFFFF" transform="matrix(1.00, 0.00, -0.00, -1.00, 831.1, 153.2)">g</text><text xml:space="preserve" font-family="Helvetica-Light,Helvetica" font-size="79.2" fill="#FEFFFF" transform="matrix(1.00, 0.00, -0.00, -1.00, 879.4, 153.2)">s</text><text xml:space="preserve" font-family="Helvetica-Light,Helvetica" font-size="32.0" fill="#FEFFFF" transform="matrix(1.00, 0.00, -0.00, -1.00, 214.1, 88.4)">O</text><text xml:space="preserve" font-family="Helvetica-Light,Helvetica" font-size="32.0" fill="#FEFFFF" transform="matrix(1.00, 0.00, -0.00, -1.00, 239.0, 88.4)">r</text><text xml:space="preserve" font-family="Helvetica-Light,Helvetica" font-size="32.0" fill="#FEFFFF" transform="matrix(1.00, 0.00, -0.00, -1.00, 249.7, 88.4)"> </text><text xml:space="preserve" font-family="Helvetica-Light,Helvetica" font-size="32.0" fill="#FEFFFF" transform="matrix(1.00, 0.00, -0.00, -1.00, 258.6, 88.4)">c</text><text xml:space="preserve" font-family="Helvetica-Light,Helvetica" font-size="32.0" fill="#FEFFFF" transform="matrix(1.00, 0.00, -0.00, -1.00, 276.4, 88.4)">o</text><text xml:space="preserve" font-family="Helvetica-Light,Helvetica" font-size="32.0" fill="#FEFFFF" transform="matrix(1.00, 0.00, -0.00, -1.00, 294.2, 88.4)">n</text><text xml:space="preserve" font-family="Helvetica-Light,Helvetica" font-size="32.0" fill="#FEFFFF" transform="matrix(1.00, 0.00, -0.00, -1.00, 312.0, 88.4)">t</text><text xml:space="preserve" font-family="Helvetica-Light,Helvetica" font-size="32.0" fill="#FEFFFF" transform="matrix(1.00, 0.00, -0.00, -1.00, 320.9, 88.4)">r</text><text xml:space="preserve" font-family="Helvetica-Light,Helvetica" font-size="32.0" fill="#FEFFFF" transform="matrix(1.00, 0.00, -0.00, -1.00, 331.5, 88.4)">i</text><text xml:space="preserve" font-family="Helvetica-Light,Helvetica" font-size="32.0" fill="#FEFFFF" transform="matrix(1.00, 0.00, -0.00, -1.00, 338.6, 88.4)">b</text><text xml:space="preserve" font-family="Helvetica-Light,Helvetica" font-size="32.0" fill="#FEFFFF" transform="matrix(1.00, 0.00, -0.00, -1.00, 358.2, 88.4)">u</text><text xml:space="preserve" font-family="Helvetica-Light,Helvetica" font-size="32.0" fill="#FEFFFF" transform="matrix(1.00, 0.00, -0.00, -1.00, 376.0, 88.4)">t</text><text xml:space="preserve" font-family="Helvetica-Light,Helvetica" font-size="32.0" fill="#FEFFFF" transform="matrix(1.00, 0.00, -0.00, -1.00, 384.9, 88.4)">o</text><text xml:space="preserve" font-family="Helvetica-Light,Helvetica" font-size="32.0" fill="#FEFFFF" transform="matrix(1.00, 0.00, -0.00, -1.00, 402.7, 88.4)">r</text><text xml:space="preserve" font-family="Helvetica-Light,Helvetica" font-size="32.0" fill="#FEFFFF" transform="matrix(1.00, 0.00, -0.00, -1.00, 413.3, 88.4)">s</text><text xml:space="preserve" font-family="Helvetica-Light,Helvetica" font-size="32.0" fill="#FEFFFF" transform="matrix(1.00, 0.00, -0.00, -1.00, 429.3, 88.4)"> </text><text xml:space="preserve" font-family="Helvetica-Light,Helvetica" font-size="32.0" fill="#FEFFFF" transform="matrix(1.00, 0.00, -0.00, -1.00, 438.2, 88.4)">w</text><text xml:space="preserve" font-family="Helvetica-Light,Helvetica" font-size="32.0" fill="#FEFFFF" transform="matrix(1.00, 0.00, -0.00, -1.00, 461.3, 88.4)">i</text><text xml:space="preserve" font-family="Helvetica-Light,Helvetica" font-size="32.0" fill="#FEFFFF" transform="matrix(1.00, 0.00, -0.00, -1.00, 468.4, 88.4)">l</text><text xml:space="preserve" font-family="Helvetica-Light,Helvetica" font-size="32.0" fill="#FEFFFF" transform="matrix(1.00, 0.00, -0.00, -1.00, 475.5, 88.4)">l</text><text xml:space="preserve" font-family="Helvetica-Light,Helvetica" font-size="32.0" fill="#FEFFFF" transform="matrix(1.00, 0.00, -0.00, -1.00, 482.6, 88.4)"> </text><text xml:space="preserve" font-family="Helvetica-Light,Helvetica" font-size="32.0" fill="#FEFFFF" transform="matrix(1.00, 0.00, -0.00, -1.00, 491.5, 88.4)">g</text><text xml:space="preserve" font-family="Helvetica-Light,Helvetica" font-size="32.0" fill="#FEFFFF" transform="matrix(1.00, 0.00, -0.00, -1.00, 511.1, 88.4)">e</text><text xml:space="preserve" font-family="Helvetica-Light,Helvetica" font-size="32.0" fill="#FEFFFF" transform="matrix(1.00, 0.00, -0.00, -1.00, 528.9, 88.4)">t</text><text xml:space="preserve" font-family="Helvetica-Light,Helvetica" font-size="32.0" fill="#FEFFFF" transform="matrix(1.00, 0.00, -0.00, -1.00, 537.8, 88.4)"> </text><text xml:space="preserve" font-family="Helvetica-Light,Helvetica" font-size="32.0" fill="#FEFFFF" transform="matrix(1.00, 0.00, -0.00, -1.00, 546.7, 88.4)">f</text><text xml:space="preserve" font-family="Helvetica-Light,Helvetica" font-size="32.0" fill="#FEFFFF" transform="matrix(1.00, 0.00, -0.00, -1.00, 555.6, 88.4)">r</text><text xml:space="preserve" font-family="Helvetica-Light,Helvetica" font-size="32.0" fill="#FEFFFF" transform="matrix(1.00, 0.00, -0.00, -1.00, 566.2, 88.4)">u</text><text xml:space="preserve" font-family="Helvetica-Light,Helvetica" font-size="32.0" fill="#FEFFFF" transform="matrix(1.00, 0.00, -0.00, -1.00, 584.0, 88.4)">s</text><text xml:space="preserve" font-family="Helvetica-Light,Helvetica" font-size="32.0" fill="#FEFFFF" transform="matrix(1.00, 0.00, -0.00, -1.00, 600.0, 88.4)">t</text><text xml:space="preserve" font-family="Helvetica-Light,Helvetica" font-size="32.0" fill="#FEFFFF" transform="matrix(1.00, 0.00, -0.00, -1.00, 608.9, 88.4)">r</text><text xml:space="preserve" font-family="Helvetica-Light,Helvetica" font-size="32.0" fill="#FEFFFF" transform="matrix(1.00, 0.00, -0.00, -1.00, 619.6, 88.4)">a</text><text xml:space="preserve" font-family="Helvetica-Light,Helvetica" font-size="32.0" fill="#FEFFFF" transform="matrix(1.00, 0.00, -0.00, -1.00, 637.3, 88.4)">t</text><text xml:space="preserve" font-family="Helvetica-Light,Helvetica" font-size="32.0" fill="#FEFFFF" transform="matrix(1.00, 0.00, -0.00, -1.00, 646.2, 88.4)">e</text><text xml:space="preserve" font-family="Helvetica-Light,Helvetica" font-size="32.0" fill="#FEFFFF" transform="matrix(1.00, 0.00, -0.00, -1.00, 664.0, 88.4)">d</text><text xml:space="preserve" font-family="Helvetica-Light,Helvetica" font-size="32.0" fill="#FEFFFF" transform="matrix(1.00, 0.00, -0.00, -1.00, 683.6, 88.4)"> </text><text xml:space="preserve" font-family="Helvetica-Light,Helvetica" font-size="32.0" fill="#FEFFFF" transform="matrix(1.00, 0.00, -0.00, -1.00, 692.5, 88.4)">a</text><text xml:space="preserve" font-family="Helvetica-Light,Helvetica" font-size="32.0" fill="#FEFFFF" transform="matrix(1.00, 0.00, -0.00, -1.00, 710.3, 88.4)">n</text><text xml:space="preserve" font-family="Helvetica-Light,Helvetica" font-size="32.0" fill="#FEFFFF" transform="matrix(1.00, 0.00, -0.00, -1.00, 728.1, 88.4)">d</text><text xml:space="preserve" font-family="Helvetica-Light,Helvetica" font-size="32.0" fill="#FEFFFF" transform="matrix(1.00, 0.00, -0.00, -1.00, 747.6, 88.4)"> </text><text xml:space="preserve" font-family="Helvetica-Light,Helvetica" font-size="32.0" fill="#FEFFFF" transform="matrix(1.00, 0.00, -0.00, -1.00, 756.5, 88.4)">q</text><text xml:space="preserve" font-family="Helvetica-Light,Helvetica" font-size="32.0" fill="#FEFFFF" transform="matrix(1.00, 0.00, -0.00, -1.00, 776.1, 88.4)">u</text><text xml:space="preserve" font-family="Helvetica-Light,Helvetica" font-size="32.0" fill="#FEFFFF" transform="matrix(1.00, 0.00, -0.00, -1.00, 793.9, 88.4)">i</text><text xml:space="preserve" font-family="Helvetica-Light,Helvetica" font-size="32.0" fill="#FEFFFF" transform="matrix(1.00, 0.00, -0.00, -1.00, 801.0, 88.4)">t</text></g></svg>