<?xml version="1.0" encoding="UTF-8" standalone="no"?><svg xmlns="http://www.w3.org/2000/svg" xmlns:xlink="http://www.w3.org/1999/xlink" clip-rule="evenodd" stroke-miterlimit="10" viewBox="0 0 1024 768"><desc>SVG generated by Keynote</desc><defs></defs><g transform="matrix(1.00, 0.00, -0.00, -1.00, 0.0, 768.0)"><path d="M 0.0 768.0 L 1024.0 768.0 L 1024.0 0.0 L 0.0 0.0 Z M 0.0 768.0 " fill="#000000"></path><g><clipPath id="clip0x600001ea8640"><path d="M 128.0 716.0 L 896.0 716.0 L 896.0 251.0 L 128.0 251.0 Z M 127.5 716.0 "></path></clipPath><g clip-path="url(#clip0x600001ea8640)"><image xlink:href="49F5FB5327C6614C450FEAB00AF7CA83.jpeg" width="1280.00" height="1260.00" transform="matrix(0.60, 0.00, -0.00, -0.60, 128.0, 862.0)"></image></g></g><text xml:space="preserve" font-family="Helvetica-Light,Helvetica" font-size="43.2" fill="#FEFFFF" transform="matrix(1.00, 0.00, -0.00, -1.00, 230.3, 192.9)">W</text><text xml:space="preserve" font-family="Helvetica-Light,Helvetica" font-size="43.2" fill="#FEFFFF" transform="matrix(1.00, 0.00, -0.00, -1.00, 268.7, 192.9)">h</text><text xml:space="preserve" font-family="Helvetica-Light,Helvetica" font-size="43.2" fill="#FEFFFF" transform="matrix(1.00, 0.00, -0.00, -1.00, 292.7, 192.9)">y</text><text xml:space="preserve" font-family="Helvetica-Light,Helvetica" font-size="43.2" fill="#FEFFFF" transform="matrix(1.00, 0.00, -0.00, -1.00, 314.3, 192.9)"> </text><text xml:space="preserve" font-family="Helvetica-Light,Helvetica" font-size="43.2" fill="#FEFFFF" transform="matrix(1.00, 0.00, -0.00, -1.00, 326.3, 192.9)">b</text><text xml:space="preserve" font-family="Helvetica-Light,Helvetica" font-size="43.2" fill="#FEFFFF" transform="matrix(1.00, 0.00, -0.00, -1.00, 352.7, 192.9)">u</text><text xml:space="preserve" font-family="Helvetica-Light,Helvetica" font-size="43.2" fill="#FEFFFF" transform="matrix(1.00, 0.00, -0.00, -1.00, 376.8, 192.9)">i</text><text xml:space="preserve" font-family="Helvetica-Light,Helvetica" font-size="43.2" fill="#FEFFFF" transform="matrix(1.00, 0.00, -0.00, -1.00, 386.4, 192.9)">l</text><text xml:space="preserve" font-family="Helvetica-Light,Helvetica" font-size="43.2" fill="#FEFFFF" transform="matrix(1.00, 0.00, -0.00, -1.00, 395.9, 192.9)">d</text><text xml:space="preserve" font-family="Helvetica-Light,Helvetica" font-size="43.2" fill="#FEFFFF" transform="matrix(1.00, 0.00, -0.00, -1.00, 422.3, 192.9)"> </text><text xml:space="preserve" font-family="Helvetica-Light,Helvetica" font-size="43.2" fill="#FEFFFF" transform="matrix(1.00, 0.00, -0.00, -1.00, 434.3, 192.9)">c</text><text xml:space="preserve" font-family="Helvetica-Light,Helvetica" font-size="43.2" fill="#FEFFFF" transform="matrix(1.00, 0.00, -0.00, -1.00, 458.4, 192.9)">o</text><text xml:space="preserve" font-family="Helvetica-Light,Helvetica" font-size="43.2" fill="#FEFFFF" transform="matrix(1.00, 0.00, -0.00, -1.00, 482.4, 192.9)">m</text><text xml:space="preserve" font-family="Helvetica-Light,Helvetica" font-size="43.2" fill="#FEFFFF" transform="matrix(1.00, 0.00, -0.00, -1.00, 518.4, 192.9)">m</text><text xml:space="preserve" font-family="Helvetica-Light,Helvetica" font-size="43.2" fill="#FEFFFF" transform="matrix(1.00, 0.00, -0.00, -1.00, 554.4, 192.9)">u</text><text xml:space="preserve" font-family="Helvetica-Light,Helvetica" font-size="43.2" fill="#FEFFFF" transform="matrix(1.00, 0.00, -0.00, -1.00, 578.4, 192.9)">n</text><text xml:space="preserve" font-family="Helvetica-Light,Helvetica" font-size="43.2" fill="#FEFFFF" transform="matrix(1.00, 0.00, -0.00, -1.00, 602.4, 192.9)">i</text><text xml:space="preserve" font-family="Helvetica-Light,Helvetica" font-size="43.2" fill="#FEFFFF" transform="matrix(1.00, 0.00, -0.00, -1.00, 612.0, 192.9)">t</text><text xml:space="preserve" font-family="Helvetica-Light,Helvetica" font-size="43.2" fill="#FEFFFF" transform="matrix(1.00, 0.00, -0.00, -1.00, 624.0, 192.9)">y</text><text xml:space="preserve" font-family="Helvetica-Light,Helvetica" font-size="43.2" fill="#FEFFFF" transform="matrix(1.00, 0.00, -0.00, -1.00, 645.6, 192.9)"> </text><text xml:space="preserve" font-family="Helvetica-Light,Helvetica" font-size="43.2" fill="#FEFFFF" transform="matrix(1.00, 0.00, -0.00, -1.00, 657.6, 192.9)">a</text><text xml:space="preserve" font-family="Helvetica-Light,Helvetica" font-size="43.2" fill="#FEFFFF" transform="matrix(1.00, 0.00, -0.00, -1.00, 681.6, 192.9)">r</text><text xml:space="preserve" font-family="Helvetica-Light,Helvetica" font-size="43.2" fill="#FEFFFF" transform="matrix(1.00, 0.00, -0.00, -1.00, 695.2, 192.9)">o</text><text xml:space="preserve" font-family="Helvetica-Light,Helvetica" font-size="43.2" fill="#FEFFFF" transform="matrix(1.00, 0.00, -0.00, -1.00, 719.3, 192.9)">u</text><text xml:space="preserve" font-family="Helvetica-Light,Helvetica" font-size="43.2" fill="#FEFFFF" transform="matrix(1.00, 0.00, -0.00, -1.00, 743.3, 192.9)">n</text><text xml:space="preserve" font-family="Helvetica-Light,Helvetica" font-size="43.2" fill="#FEFFFF" transform="matrix(1.00, 0.00, -0.00, -1.00, 767.3, 192.9)">d</text><text xml:space="preserve" font-family="Helvetica-Light,Helvetica" font-size="43.2" fill="#FEFFFF" transform="matrix(1.00, 0.00, -0.00, -1.00, 793.7, 192.9)"> </text><text xml:space="preserve" font-family="Helvetica-Light,Helvetica" font-size="43.2" fill="#FEFFFF" transform="matrix(1.00, 0.00, -0.00, -1.00, 259.5, 140.9)">y</text><text xml:space="preserve" font-family="Helvetica-Light,Helvetica" font-size="43.2" fill="#FEFFFF" transform="matrix(1.00, 0.00, -0.00, -1.00, 281.1, 140.9)">o</text><text xml:space="preserve" font-family="Helvetica-Light,Helvetica" font-size="43.2" fill="#FEFFFF" transform="matrix(1.00, 0.00, -0.00, -1.00, 305.1, 140.9)">u</text><text xml:space="preserve" font-family="Helvetica-Light,Helvetica" font-size="43.2" fill="#FEFFFF" transform="matrix(1.00, 0.00, -0.00, -1.00, 329.1, 140.9)">r</text><text xml:space="preserve" font-family="Helvetica-Light,Helvetica" font-size="43.2" fill="#FEFFFF" transform="matrix(1.00, 0.00, -0.00, -1.00, 343.5, 140.9)"> </text><text xml:space="preserve" font-family="Helvetica-Light,Helvetica" font-size="43.2" fill="#FEFFFF" transform="matrix(1.00, 0.00, -0.00, -1.00, 355.5, 140.9)">o</text><text xml:space="preserve" font-family="Helvetica-Light,Helvetica" font-size="43.2" fill="#FEFFFF" transform="matrix(1.00, 0.00, -0.00, -1.00, 379.5, 140.9)">p</text><text xml:space="preserve" font-family="Helvetica-Light,Helvetica" font-size="43.2" fill="#FEFFFF" transform="matrix(1.00, 0.00, -0.00, -1.00, 405.9, 140.9)">e</text><text xml:space="preserve" font-family="Helvetica-Light,Helvetica" font-size="43.2" fill="#FEFFFF" transform="matrix(1.00, 0.00, -0.00, -1.00, 429.9, 140.9)">n</text><text xml:space="preserve" font-family="Helvetica-Light,Helvetica" font-size="43.2" fill="#FEFFFF" transform="matrix(1.00, 0.00, -0.00, -1.00, 454.0, 140.9)"> </text><text xml:space="preserve" font-family="Helvetica-Light,Helvetica" font-size="43.2" fill="#FEFFFF" transform="matrix(1.00, 0.00, -0.00, -1.00, 466.0, 140.9)">s</text><text xml:space="preserve" font-family="Helvetica-Light,Helvetica" font-size="43.2" fill="#FEFFFF" transform="matrix(1.00, 0.00, -0.00, -1.00, 487.6, 140.9)">o</text><text xml:space="preserve" font-family="Helvetica-Light,Helvetica" font-size="43.2" fill="#FEFFFF" transform="matrix(1.00, 0.00, -0.00, -1.00, 511.6, 140.9)">u</text><text xml:space="preserve" font-family="Helvetica-Light,Helvetica" font-size="43.2" fill="#FEFFFF" transform="matrix(1.00, 0.00, -0.00, -1.00, 535.6, 140.9)">r</text><text xml:space="preserve" font-family="Helvetica-Light,Helvetica" font-size="43.2" fill="#FEFFFF" transform="matrix(1.00, 0.00, -0.00, -1.00, 549.2, 140.9)">c</text><text xml:space="preserve" font-family="Helvetica-Light,Helvetica" font-size="43.2" fill="#FEFFFF" transform="matrix(1.00, 0.00, -0.00, -1.00, 573.2, 140.9)">e</text><text xml:space="preserve" font-family="Helvetica-Light,Helvetica" font-size="43.2" fill="#FEFFFF" transform="matrix(1.00, 0.00, -0.00, -1.00, 597.3, 140.9)"> </text><text xml:space="preserve" font-family="Helvetica-Light,Helvetica" font-size="43.2" fill="#FEFFFF" transform="matrix(1.00, 0.00, -0.00, -1.00, 609.3, 140.9)">p</text><text xml:space="preserve" font-family="Helvetica-Light,Helvetica" font-size="43.2" fill="#FEFFFF" transform="matrix(1.00, 0.00, -0.00, -1.00, 635.7, 140.9)">r</text><text xml:space="preserve" font-family="Helvetica-Light,Helvetica" font-size="43.2" fill="#FEFFFF" transform="matrix(1.00, 0.00, -0.00, -1.00, 649.3, 140.9)">o</text><text xml:space="preserve" font-family="Helvetica-Light,Helvetica" font-size="43.2" fill="#FEFFFF" transform="matrix(1.00, 0.00, -0.00, -1.00, 673.3, 140.9)">j</text><text xml:space="preserve" font-family="Helvetica-Light,Helvetica" font-size="43.2" fill="#FEFFFF" transform="matrix(1.00, 0.00, -0.00, -1.00, 682.9, 140.9)">e</text><text xml:space="preserve" font-family="Helvetica-Light,Helvetica" font-size="43.2" fill="#FEFFFF" transform="matrix(1.00, 0.00, -0.00, -1.00, 706.9, 140.9)">c</text><text xml:space="preserve" font-family="Helvetica-Light,Helvetica" font-size="43.2" fill="#FEFFFF" transform="matrix(1.00, 0.00, -0.00, -1.00, 730.9, 140.9)">t</text><text xml:space="preserve" font-family="Helvetica-Light,Helvetica" font-size="43.2" fill="#FEFFFF" transform="matrix(1.00, 0.00, -0.00, -1.00, 742.9, 140.9)">?</text><text xml:space="preserve" font-family="Helvetica-Light,Helvetica" font-size="32.0" fill="#FEFFFF" transform="matrix(1.00, 0.00, -0.00, -1.00, 313.1, 88.4)">A</text><text xml:space="preserve" font-family="Helvetica-Light,Helvetica" font-size="32.0" fill="#FEFFFF" transform="matrix(1.00, 0.00, -0.00, -1.00, 334.5, 88.4)">f</text><text xml:space="preserve" font-family="Helvetica-Light,Helvetica" font-size="32.0" fill="#FEFFFF" transform="matrix(1.00, 0.00, -0.00, -1.00, 343.4, 88.4)">t</text><text xml:space="preserve" font-family="Helvetica-Light,Helvetica" font-size="32.0" fill="#FEFFFF" transform="matrix(1.00, 0.00, -0.00, -1.00, 352.3, 88.4)">e</text><text xml:space="preserve" font-family="Helvetica-Light,Helvetica" font-size="32.0" fill="#FEFFFF" transform="matrix(1.00, 0.00, -0.00, -1.00, 370.0, 88.4)">r</text><text xml:space="preserve" font-family="Helvetica-Light,Helvetica" font-size="32.0" fill="#FEFFFF" transform="matrix(1.00, 0.00, -0.00, -1.00, 380.7, 88.4)"> </text><text xml:space="preserve" font-family="Helvetica-Light,Helvetica" font-size="32.0" fill="#FEFFFF" transform="matrix(1.00, 0.00, -0.00, -1.00, 389.6, 88.4)">a</text><text xml:space="preserve" font-family="Helvetica-Light,Helvetica" font-size="32.0" fill="#FEFFFF" transform="matrix(1.00, 0.00, -0.00, -1.00, 407.4, 88.4)">l</text><text xml:space="preserve" font-family="Helvetica-Light,Helvetica" font-size="32.0" fill="#FEFFFF" transform="matrix(1.00, 0.00, -0.00, -1.00, 414.5, 88.4)">l</text><text xml:space="preserve" font-family="Helvetica-Light,Helvetica" font-size="32.0" fill="#FEFFFF" transform="matrix(1.00, 0.00, -0.00, -1.00, 421.6, 88.4)">:</text><text xml:space="preserve" font-family="Helvetica-Light,Helvetica" font-size="32.0" fill="#FEFFFF" transform="matrix(1.00, 0.00, -0.00, -1.00, 430.5, 88.4)"> </text><text xml:space="preserve" font-family="Helvetica-Light,Helvetica" font-size="32.0" fill="#FEFFFF" transform="matrix(1.00, 0.00, -0.00, -1.00, 439.4, 88.4)">p</text><text xml:space="preserve" font-family="Helvetica-Light,Helvetica" font-size="32.0" fill="#FEFFFF" transform="matrix(1.00, 0.00, -0.00, -1.00, 458.9, 88.4)">e</text><text xml:space="preserve" font-family="Helvetica-Light,Helvetica" font-size="32.0" fill="#FEFFFF" transform="matrix(1.00, 0.00, -0.00, -1.00, 476.7, 88.4)">o</text><text xml:space="preserve" font-family="Helvetica-Light,Helvetica" font-size="32.0" fill="#FEFFFF" transform="matrix(1.00, 0.00, -0.00, -1.00, 494.5, 88.4)">p</text><text xml:space="preserve" font-family="Helvetica-Light,Helvetica" font-size="32.0" fill="#FEFFFF" transform="matrix(1.00, 0.00, -0.00, -1.00, 514.1, 88.4)">l</text><text xml:space="preserve" font-family="Helvetica-Light,Helvetica" font-size="32.0" fill="#FEFFFF" transform="matrix(1.00, 0.00, -0.00, -1.00, 521.2, 88.4)">e</text><text xml:space="preserve" font-family="Helvetica-Light,Helvetica" font-size="32.0" fill="#FEFFFF" transform="matrix(1.00, 0.00, -0.00, -1.00, 539.0, 88.4)"> </text><text xml:space="preserve" font-family="Helvetica-Light,Helvetica" font-size="32.0" fill="#FEFFFF" transform="matrix(1.00, 0.00, -0.00, -1.00, 547.9, 88.4)">a</text><text xml:space="preserve" font-family="Helvetica-Light,Helvetica" font-size="32.0" fill="#FEFFFF" transform="matrix(1.00, 0.00, -0.00, -1.00, 565.7, 88.4)">r</text><text xml:space="preserve" font-family="Helvetica-Light,Helvetica" font-size="32.0" fill="#FEFFFF" transform="matrix(1.00, 0.00, -0.00, -1.00, 575.7, 88.4)">e</text><text xml:space="preserve" font-family="Helvetica-Light,Helvetica" font-size="32.0" fill="#FEFFFF" transform="matrix(1.00, 0.00, -0.00, -1.00, 593.5, 88.4)"> </text><text xml:space="preserve" font-family="Helvetica-Light,Helvetica" font-size="32.0" fill="#FEFFFF" transform="matrix(1.00, 0.00, -0.00, -1.00, 602.4, 88.4)">t</text><text xml:space="preserve" font-family="Helvetica-Light,Helvetica" font-size="32.0" fill="#FEFFFF" transform="matrix(1.00, 0.00, -0.00, -1.00, 611.3, 88.4)">e</text><text xml:space="preserve" font-family="Helvetica-Light,Helvetica" font-size="32.0" fill="#FEFFFF" transform="matrix(1.00, 0.00, -0.00, -1.00, 629.1, 88.4)">r</text><text xml:space="preserve" font-family="Helvetica-Light,Helvetica" font-size="32.0" fill="#FEFFFF" transform="matrix(1.00, 0.00, -0.00, -1.00, 639.8, 88.4)">r</text><text xml:space="preserve" font-family="Helvetica-Light,Helvetica" font-size="32.0" fill="#FEFFFF" transform="matrix(1.00, 0.00, -0.00, -1.00, 650.4, 88.4)">i</text><text xml:space="preserve" font-family="Helvetica-Light,Helvetica" font-size="32.0" fill="#FEFFFF" transform="matrix(1.00, 0.00, -0.00, -1.00, 657.5, 88.4)">b</text><text xml:space="preserve" font-family="Helvetica-Light,Helvetica" font-size="32.0" fill="#FEFFFF" transform="matrix(1.00, 0.00, -0.00, -1.00, 677.1, 88.4)">l</text><text xml:space="preserve" font-family="Helvetica-Light,Helvetica" font-size="32.0" fill="#FEFFFF" transform="matrix(1.00, 0.00, -0.00, -1.00, 684.2, 88.4)">e</text><text xml:space="preserve" font-family="Helvetica-Light,Helvetica" font-size="32.0" fill="#FEFFFF" transform="matrix(1.00, 0.00, -0.00, -1.00, 702.0, 88.4)">.</text></g></svg>