<?xml version="1.0" encoding="UTF-8" standalone="no"?><svg xmlns="http://www.w3.org/2000/svg" xmlns:xlink="http://www.w3.org/1999/xlink" clip-rule="evenodd" stroke-miterlimit="10" viewBox="0 0 1024 768"><desc>SVG generated by Keynote</desc><defs></defs><g transform="matrix(1.00, 0.00, -0.00, -1.00, 0.0, 768.0)"><path d="M 0.0 768.0 L 1024.0 768.0 L 1024.0 0.0 L 0.0 0.0 Z M 0.0 768.0 " fill="#000000"></path><text xml:space="preserve" font-family="Helvetica-Light,Helvetica" font-size="80.0" fill="#FEFFFF" transform="matrix(1.00, 0.00, -0.00, -1.00, 270.4, 633.4)">P</text><text xml:space="preserve" font-family="Helvetica-Light,Helvetica" font-size="80.0" fill="#FEFFFF" transform="matrix(1.00, 0.00, -0.00, -1.00, 319.3, 633.4)">h</text><text xml:space="preserve" font-family="Helvetica-Light,Helvetica" font-size="80.0" fill="#FEFFFF" transform="matrix(1.00, 0.00, -0.00, -1.00, 363.8, 633.4)">o</text><text xml:space="preserve" font-family="Helvetica-Light,Helvetica" font-size="80.0" fill="#FEFFFF" transform="matrix(1.00, 0.00, -0.00, -1.00, 408.3, 633.4)">t</text><text xml:space="preserve" font-family="Helvetica-Light,Helvetica" font-size="80.0" fill="#FEFFFF" transform="matrix(1.00, 0.00, -0.00, -1.00, 430.5, 633.4)">o</text><text xml:space="preserve" font-family="Helvetica-Light,Helvetica" font-size="80.0" fill="#FEFFFF" transform="matrix(1.00, 0.00, -0.00, -1.00, 475.0, 633.4)"> </text><text xml:space="preserve" font-family="Helvetica-Light,Helvetica" font-size="80.0" fill="#FEFFFF" transform="matrix(1.00, 0.00, -0.00, -1.00, 497.2, 633.4)">C</text><text xml:space="preserve" font-family="Helvetica-Light,Helvetica" font-size="80.0" fill="#FEFFFF" transform="matrix(1.00, 0.00, -0.00, -1.00, 555.0, 633.4)">r</text><text xml:space="preserve" font-family="Helvetica-Light,Helvetica" font-size="80.0" fill="#FEFFFF" transform="matrix(1.00, 0.00, -0.00, -1.00, 580.2, 633.4)">e</text><text xml:space="preserve" font-family="Helvetica-Light,Helvetica" font-size="80.0" fill="#FEFFFF" transform="matrix(1.00, 0.00, -0.00, -1.00, 624.7, 633.4)">d</text><text xml:space="preserve" font-family="Helvetica-Light,Helvetica" font-size="80.0" fill="#FEFFFF" transform="matrix(1.00, 0.00, -0.00, -1.00, 673.6, 633.4)">i</text><text xml:space="preserve" font-family="Helvetica-Light,Helvetica" font-size="80.0" fill="#FEFFFF" transform="matrix(1.00, 0.00, -0.00, -1.00, 691.3, 633.4)">t</text><text xml:space="preserve" font-family="Helvetica-Light,Helvetica" font-size="80.0" fill="#FEFFFF" transform="matrix(1.00, 0.00, -0.00, -1.00, 713.6, 633.4)">s</text><text xml:space="preserve" font-family="Helvetica-Light,Helvetica" font-size="25.9" fill="#FEFFFF" transform="matrix(1.00, 0.00, -0.00, -1.00, 79.0, 528.5)">•</text><text xml:space="preserve" font-family="Helvetica-Light,Helvetica" font-size="34.6" fill="#FEFFFF" transform="matrix(1.00, 0.00, -0.00, -1.00, 110.9, 525.0)">ﬂ</text><text xml:space="preserve" font-family="Helvetica-Light,Helvetica" font-size="34.6" fill="#FEFFFF" transform="matrix(1.00, 0.00, -0.00, -1.00, 128.1, 525.0)">i</text><text xml:space="preserve" font-family="Helvetica-Light,Helvetica" font-size="34.6" fill="#FEFFFF" transform="matrix(1.00, 0.00, -0.00, -1.00, 135.8, 525.0)">c</text><text xml:space="preserve" font-family="Helvetica-Light,Helvetica" font-size="34.6" fill="#FEFFFF" transform="matrix(1.00, 0.00, -0.00, -1.00, 155.0, 525.0)">k</text><text xml:space="preserve" font-family="Helvetica-Light,Helvetica" font-size="34.6" fill="#FEFFFF" transform="matrix(1.00, 0.00, -0.00, -1.00, 172.3, 525.0)">r</text><text xml:space="preserve" font-family="Helvetica-Light,Helvetica" font-size="34.6" fill="#FEFFFF" transform="matrix(1.00, 0.00, -0.00, -1.00, 180.7, 525.0)">.</text><text xml:space="preserve" font-family="Helvetica-Light,Helvetica" font-size="34.6" fill="#FEFFFF" transform="matrix(1.00, 0.00, -0.00, -1.00, 190.3, 525.0)">c</text><text xml:space="preserve" font-family="Helvetica-Light,Helvetica" font-size="34.6" fill="#FEFFFF" transform="matrix(1.00, 0.00, -0.00, -1.00, 209.5, 525.0)">o</text><text xml:space="preserve" font-family="Helvetica-Light,Helvetica" font-size="34.6" fill="#FEFFFF" transform="matrix(1.00, 0.00, -0.00, -1.00, 228.7, 525.0)">m</text><text xml:space="preserve" font-family="Helvetica-Light,Helvetica" font-size="34.6" fill="#FEFFFF" transform="matrix(1.00, 0.00, -0.00, -1.00, 257.5, 525.0)">/</text><text xml:space="preserve" font-family="Helvetica-Light,Helvetica" font-size="34.6" fill="#FEFFFF" transform="matrix(1.00, 0.00, -0.00, -1.00, 267.2, 525.0)">p</text><text xml:space="preserve" font-family="Helvetica-Light,Helvetica" font-size="34.6" fill="#FEFFFF" transform="matrix(1.00, 0.00, -0.00, -1.00, 288.3, 525.0)">h</text><text xml:space="preserve" font-family="Helvetica-Light,Helvetica" font-size="34.6" fill="#FEFFFF" transform="matrix(1.00, 0.00, -0.00, -1.00, 307.5, 525.0)">o</text><text xml:space="preserve" font-family="Helvetica-Light,Helvetica" font-size="34.6" fill="#FEFFFF" transform="matrix(1.00, 0.00, -0.00, -1.00, 326.7, 525.0)">t</text><text xml:space="preserve" font-family="Helvetica-Light,Helvetica" font-size="34.6" fill="#FEFFFF" transform="matrix(1.00, 0.00, -0.00, -1.00, 336.3, 525.0)">o</text><text xml:space="preserve" font-family="Helvetica-Light,Helvetica" font-size="34.6" fill="#FEFFFF" transform="matrix(1.00, 0.00, -0.00, -1.00, 355.6, 525.0)">s</text><text xml:space="preserve" font-family="Helvetica-Light,Helvetica" font-size="34.6" fill="#FEFFFF" transform="matrix(1.00, 0.00, -0.00, -1.00, 372.9, 525.0)">/</text><text xml:space="preserve" font-family="Helvetica-Light,Helvetica" font-size="34.6" fill="#FEFFFF" transform="matrix(1.00, 0.00, -0.00, -1.00, 382.5, 525.0)">b</text><text xml:space="preserve" font-family="Helvetica-Light,Helvetica" font-size="34.6" fill="#FEFFFF" transform="matrix(1.00, 0.00, -0.00, -1.00, 403.6, 525.0)">n</text><text xml:space="preserve" font-family="Helvetica-Light,Helvetica" font-size="34.6" fill="#FEFFFF" transform="matrix(1.00, 0.00, -0.00, -1.00, 422.8, 525.0)">e</text><text xml:space="preserve" font-family="Helvetica-Light,Helvetica" font-size="34.6" fill="#FEFFFF" transform="matrix(1.00, 0.00, -0.00, -1.00, 442.1, 525.0)">d</text><text xml:space="preserve" font-family="Helvetica-Light,Helvetica" font-size="34.6" fill="#FEFFFF" transform="matrix(1.00, 0.00, -0.00, -1.00, 463.2, 525.0)">w</text><text xml:space="preserve" font-family="Helvetica-Light,Helvetica" font-size="34.6" fill="#FEFFFF" transform="matrix(1.00, 0.00, -0.00, -1.00, 488.2, 525.0)">e</text><text xml:space="preserve" font-family="Helvetica-Light,Helvetica" font-size="34.6" fill="#FEFFFF" transform="matrix(1.00, 0.00, -0.00, -1.00, 507.4, 525.0)">k</text><text xml:space="preserve" font-family="Helvetica-Light,Helvetica" font-size="34.6" fill="#FEFFFF" transform="matrix(1.00, 0.00, -0.00, -1.00, 524.7, 525.0)">/</text><text xml:space="preserve" font-family="Helvetica-Light,Helvetica" font-size="34.6" fill="#FEFFFF" transform="matrix(1.00, 0.00, -0.00, -1.00, 534.3, 525.0)">5</text><text xml:space="preserve" font-family="Helvetica-Light,Helvetica" font-size="34.6" fill="#FEFFFF" transform="matrix(1.00, 0.00, -0.00, -1.00, 553.5, 525.0)">7</text><text xml:space="preserve" font-family="Helvetica-Light,Helvetica" font-size="34.6" fill="#FEFFFF" transform="matrix(1.00, 0.00, -0.00, -1.00, 572.7, 525.0)">6</text><text xml:space="preserve" font-family="Helvetica-Light,Helvetica" font-size="34.6" fill="#FEFFFF" transform="matrix(1.00, 0.00, -0.00, -1.00, 592.0, 525.0)">3</text><text xml:space="preserve" font-family="Helvetica-Light,Helvetica" font-size="34.6" fill="#FEFFFF" transform="matrix(1.00, 0.00, -0.00, -1.00, 611.2, 525.0)">7</text><text xml:space="preserve" font-family="Helvetica-Light,Helvetica" font-size="34.6" fill="#FEFFFF" transform="matrix(1.00, 0.00, -0.00, -1.00, 630.4, 525.0)">9</text><text xml:space="preserve" font-family="Helvetica-Light,Helvetica" font-size="34.6" fill="#FEFFFF" transform="matrix(1.00, 0.00, -0.00, -1.00, 649.6, 525.0)">0</text><text xml:space="preserve" font-family="Helvetica-Light,Helvetica" font-size="34.6" fill="#FEFFFF" transform="matrix(1.00, 0.00, -0.00, -1.00, 668.9, 525.0)">7</text><text xml:space="preserve" font-family="Helvetica-Light,Helvetica" font-size="34.6" fill="#FEFFFF" transform="matrix(1.00, 0.00, -0.00, -1.00, 688.1, 525.0)">3</text><text xml:space="preserve" font-family="Helvetica-Light,Helvetica" font-size="34.6" fill="#FEFFFF" transform="matrix(1.00, 0.00, -0.00, -1.00, 707.3, 525.0)">8</text><text xml:space="preserve" font-family="Helvetica-Light,Helvetica" font-size="34.6" fill="#FEFFFF" transform="matrix(1.00, 0.00, -0.00, -1.00, 726.5, 525.0)"> </text><g><clipPath id="clip0x6080026ade00"><path d="M 109.9 520.5 L 726.5 520.5 L 726.5 524.2 L 109.9 524.2 Z M 109.9 520.5 "></path></clipPath><g clip-path="url(#clip0x6080026ade00)"><path d="M 35.9 41.6 L 651.5 41.6 " fill="none" stroke="#FEFFFF" stroke-width="1.73" transform="matrix(1.00, 0.00, 0.00, -1.00, 75.0, 564.0)"></path></g></g><text xml:space="preserve" font-family="Helvetica-Light,Helvetica" font-size="25.9" fill="#FEFFFF" transform="matrix(1.00, 0.00, -0.00, -1.00, 79.0, 448.2)">•</text><text xml:space="preserve" font-family="Helvetica-Light,Helvetica" font-size="34.6" fill="#FEFFFF" transform="matrix(1.00, 0.00, -0.00, -1.00, 110.9, 444.7)">ﬂ</text><text xml:space="preserve" font-family="Helvetica-Light,Helvetica" font-size="34.6" fill="#FEFFFF" transform="matrix(1.00, 0.00, -0.00, -1.00, 128.1, 444.7)">i</text><text xml:space="preserve" font-family="Helvetica-Light,Helvetica" font-size="34.6" fill="#FEFFFF" transform="matrix(1.00, 0.00, -0.00, -1.00, 135.8, 444.7)">c</text><text xml:space="preserve" font-family="Helvetica-Light,Helvetica" font-size="34.6" fill="#FEFFFF" transform="matrix(1.00, 0.00, -0.00, -1.00, 155.0, 444.7)">k</text><text xml:space="preserve" font-family="Helvetica-Light,Helvetica" font-size="34.6" fill="#FEFFFF" transform="matrix(1.00, 0.00, -0.00, -1.00, 172.3, 444.7)">r</text><text xml:space="preserve" font-family="Helvetica-Light,Helvetica" font-size="34.6" fill="#FEFFFF" transform="matrix(1.00, 0.00, -0.00, -1.00, 180.7, 444.7)">.</text><text xml:space="preserve" font-family="Helvetica-Light,Helvetica" font-size="34.6" fill="#FEFFFF" transform="matrix(1.00, 0.00, -0.00, -1.00, 190.3, 444.7)">c</text><text xml:space="preserve" font-family="Helvetica-Light,Helvetica" font-size="34.6" fill="#FEFFFF" transform="matrix(1.00, 0.00, -0.00, -1.00, 209.5, 444.7)">o</text><text xml:space="preserve" font-family="Helvetica-Light,Helvetica" font-size="34.6" fill="#FEFFFF" transform="matrix(1.00, 0.00, -0.00, -1.00, 228.7, 444.7)">m</text><text xml:space="preserve" font-family="Helvetica-Light,Helvetica" font-size="34.6" fill="#FEFFFF" transform="matrix(1.00, 0.00, -0.00, -1.00, 257.5, 444.7)">/</text><text xml:space="preserve" font-family="Helvetica-Light,Helvetica" font-size="34.6" fill="#FEFFFF" transform="matrix(1.00, 0.00, -0.00, -1.00, 267.2, 444.7)">p</text><text xml:space="preserve" font-family="Helvetica-Light,Helvetica" font-size="34.6" fill="#FEFFFF" transform="matrix(1.00, 0.00, -0.00, -1.00, 288.3, 444.7)">h</text><text xml:space="preserve" font-family="Helvetica-Light,Helvetica" font-size="34.6" fill="#FEFFFF" transform="matrix(1.00, 0.00, -0.00, -1.00, 307.5, 444.7)">o</text><text xml:space="preserve" font-family="Helvetica-Light,Helvetica" font-size="34.6" fill="#FEFFFF" transform="matrix(1.00, 0.00, -0.00, -1.00, 326.7, 444.7)">t</text><text xml:space="preserve" font-family="Helvetica-Light,Helvetica" font-size="34.6" fill="#FEFFFF" transform="matrix(1.00, 0.00, -0.00, -1.00, 336.3, 444.7)">o</text><text xml:space="preserve" font-family="Helvetica-Light,Helvetica" font-size="34.6" fill="#FEFFFF" transform="matrix(1.00, 0.00, -0.00, -1.00, 355.6, 444.7)">s</text><text xml:space="preserve" font-family="Helvetica-Light,Helvetica" font-size="34.6" fill="#FEFFFF" transform="matrix(1.00, 0.00, -0.00, -1.00, 372.9, 444.7)">/</text><text xml:space="preserve" font-family="Helvetica-Light,Helvetica" font-size="34.6" fill="#FEFFFF" transform="matrix(1.00, 0.00, -0.00, -1.00, 382.5, 444.7)">c</text><text xml:space="preserve" font-family="Helvetica-Light,Helvetica" font-size="34.6" fill="#FEFFFF" transform="matrix(1.00, 0.00, -0.00, -1.00, 401.7, 444.7)">o</text><text xml:space="preserve" font-family="Helvetica-Light,Helvetica" font-size="34.6" fill="#FEFFFF" transform="matrix(1.00, 0.00, -0.00, -1.00, 420.9, 444.7)">m</text><text xml:space="preserve" font-family="Helvetica-Light,Helvetica" font-size="34.6" fill="#FEFFFF" transform="matrix(1.00, 0.00, -0.00, -1.00, 449.7, 444.7)">e</text><text xml:space="preserve" font-family="Helvetica-Light,Helvetica" font-size="34.6" fill="#FEFFFF" transform="matrix(1.00, 0.00, -0.00, -1.00, 469.0, 444.7)">d</text><text xml:space="preserve" font-family="Helvetica-Light,Helvetica" font-size="34.6" fill="#FEFFFF" transform="matrix(1.00, 0.00, -0.00, -1.00, 490.1, 444.7)">y</text><text xml:space="preserve" font-family="Helvetica-Light,Helvetica" font-size="34.6" fill="#FEFFFF" transform="matrix(1.00, 0.00, -0.00, -1.00, 507.4, 444.7)">n</text><text xml:space="preserve" font-family="Helvetica-Light,Helvetica" font-size="34.6" fill="#FEFFFF" transform="matrix(1.00, 0.00, -0.00, -1.00, 526.6, 444.7)">o</text><text xml:space="preserve" font-family="Helvetica-Light,Helvetica" font-size="34.6" fill="#FEFFFF" transform="matrix(1.00, 0.00, -0.00, -1.00, 545.8, 444.7)">s</text><text xml:space="preserve" font-family="Helvetica-Light,Helvetica" font-size="34.6" fill="#FEFFFF" transform="matrix(1.00, 0.00, -0.00, -1.00, 563.1, 444.7)">e</text><text xml:space="preserve" font-family="Helvetica-Light,Helvetica" font-size="34.6" fill="#FEFFFF" transform="matrix(1.00, 0.00, -0.00, -1.00, 582.3, 444.7)">/</text><text xml:space="preserve" font-family="Helvetica-Light,Helvetica" font-size="34.6" fill="#FEFFFF" transform="matrix(1.00, 0.00, -0.00, -1.00, 592.0, 444.7)">6</text><text xml:space="preserve" font-family="Helvetica-Light,Helvetica" font-size="34.6" fill="#FEFFFF" transform="matrix(1.00, 0.00, -0.00, -1.00, 611.2, 444.7)">2</text><text xml:space="preserve" font-family="Helvetica-Light,Helvetica" font-size="34.6" fill="#FEFFFF" transform="matrix(1.00, 0.00, -0.00, -1.00, 630.4, 444.7)">4</text><text xml:space="preserve" font-family="Helvetica-Light,Helvetica" font-size="34.6" fill="#FEFFFF" transform="matrix(1.00, 0.00, -0.00, -1.00, 649.6, 444.7)">0</text><text xml:space="preserve" font-family="Helvetica-Light,Helvetica" font-size="34.6" fill="#FEFFFF" transform="matrix(1.00, 0.00, -0.00, -1.00, 668.9, 444.7)">6</text><text xml:space="preserve" font-family="Helvetica-Light,Helvetica" font-size="34.6" fill="#FEFFFF" transform="matrix(1.00, 0.00, -0.00, -1.00, 688.1, 444.7)">7</text><text xml:space="preserve" font-family="Helvetica-Light,Helvetica" font-size="34.6" fill="#FEFFFF" transform="matrix(1.00, 0.00, -0.00, -1.00, 707.3, 444.7)">3</text><text xml:space="preserve" font-family="Helvetica-Light,Helvetica" font-size="34.6" fill="#FEFFFF" transform="matrix(1.00, 0.00, -0.00, -1.00, 726.5, 444.7)">0</text><text xml:space="preserve" font-family="Helvetica-Light,Helvetica" font-size="34.6" fill="#FEFFFF" transform="matrix(1.00, 0.00, -0.00, -1.00, 745.8, 444.7)">9</text><text xml:space="preserve" font-family="Helvetica-Light,Helvetica" font-size="34.6" fill="#FEFFFF" transform="matrix(1.00, 0.00, -0.00, -1.00, 765.0, 444.7)">6</text><text xml:space="preserve" font-family="Helvetica-Light,Helvetica" font-size="34.6" fill="#FEFFFF" transform="matrix(1.00, 0.00, -0.00, -1.00, 784.2, 444.7)">/</text><text xml:space="preserve" font-family="Helvetica-Light,Helvetica" font-size="34.6" fill="#FEFFFF" transform="matrix(1.00, 0.00, -0.00, -1.00, 793.8, 444.7)"> </text><g><clipPath id="clip0x6080026acc60"><path d="M 109.9 440.3 L 793.8 440.3 L 793.8 444.0 L 109.9 444.0 Z M 109.9 440.3 "></path></clipPath><g clip-path="url(#clip0x6080026acc60)"><path d="M 35.9 121.9 L 718.8 121.9 " fill="none" stroke="#FEFFFF" stroke-width="1.73" transform="matrix(1.00, 0.00, 0.00, -1.00, 75.0, 564.0)"></path></g></g><text xml:space="preserve" font-family="Helvetica-Light,Helvetica" font-size="25.9" fill="#FEFFFF" transform="matrix(1.00, 0.00, -0.00, -1.00, 79.0, 368.0)">•</text><text xml:space="preserve" font-family="Helvetica-Light,Helvetica" font-size="34.6" fill="#FEFFFF" transform="matrix(1.00, 0.00, -0.00, -1.00, 110.9, 364.5)">ﬂ</text><text xml:space="preserve" font-family="Helvetica-Light,Helvetica" font-size="34.6" fill="#FEFFFF" transform="matrix(1.00, 0.00, -0.00, -1.00, 128.1, 364.5)">i</text><text xml:space="preserve" font-family="Helvetica-Light,Helvetica" font-size="34.6" fill="#FEFFFF" transform="matrix(1.00, 0.00, -0.00, -1.00, 135.8, 364.5)">c</text><text xml:space="preserve" font-family="Helvetica-Light,Helvetica" font-size="34.6" fill="#FEFFFF" transform="matrix(1.00, 0.00, -0.00, -1.00, 155.0, 364.5)">k</text><text xml:space="preserve" font-family="Helvetica-Light,Helvetica" font-size="34.6" fill="#FEFFFF" transform="matrix(1.00, 0.00, -0.00, -1.00, 172.3, 364.5)">r</text><text xml:space="preserve" font-family="Helvetica-Light,Helvetica" font-size="34.6" fill="#FEFFFF" transform="matrix(1.00, 0.00, -0.00, -1.00, 180.7, 364.5)">.</text><text xml:space="preserve" font-family="Helvetica-Light,Helvetica" font-size="34.6" fill="#FEFFFF" transform="matrix(1.00, 0.00, -0.00, -1.00, 190.3, 364.5)">c</text><text xml:space="preserve" font-family="Helvetica-Light,Helvetica" font-size="34.6" fill="#FEFFFF" transform="matrix(1.00, 0.00, -0.00, -1.00, 209.5, 364.5)">o</text><text xml:space="preserve" font-family="Helvetica-Light,Helvetica" font-size="34.6" fill="#FEFFFF" transform="matrix(1.00, 0.00, -0.00, -1.00, 228.7, 364.5)">m</text><text xml:space="preserve" font-family="Helvetica-Light,Helvetica" font-size="34.6" fill="#FEFFFF" transform="matrix(1.00, 0.00, -0.00, -1.00, 257.5, 364.5)">/</text><text xml:space="preserve" font-family="Helvetica-Light,Helvetica" font-size="34.6" fill="#FEFFFF" transform="matrix(1.00, 0.00, -0.00, -1.00, 267.2, 364.5)">p</text><text xml:space="preserve" font-family="Helvetica-Light,Helvetica" font-size="34.6" fill="#FEFFFF" transform="matrix(1.00, 0.00, -0.00, -1.00, 288.3, 364.5)">h</text><text xml:space="preserve" font-family="Helvetica-Light,Helvetica" font-size="34.6" fill="#FEFFFF" transform="matrix(1.00, 0.00, -0.00, -1.00, 307.5, 364.5)">o</text><text xml:space="preserve" font-family="Helvetica-Light,Helvetica" font-size="34.6" fill="#FEFFFF" transform="matrix(1.00, 0.00, -0.00, -1.00, 326.7, 364.5)">t</text><text xml:space="preserve" font-family="Helvetica-Light,Helvetica" font-size="34.6" fill="#FEFFFF" transform="matrix(1.00, 0.00, -0.00, -1.00, 336.3, 364.5)">o</text><text xml:space="preserve" font-family="Helvetica-Light,Helvetica" font-size="34.6" fill="#FEFFFF" transform="matrix(1.00, 0.00, -0.00, -1.00, 355.6, 364.5)">s</text><text xml:space="preserve" font-family="Helvetica-Light,Helvetica" font-size="34.6" fill="#FEFFFF" transform="matrix(1.00, 0.00, -0.00, -1.00, 372.9, 364.5)">/</text><text xml:space="preserve" font-family="Helvetica-Light,Helvetica" font-size="34.6" fill="#FEFFFF" transform="matrix(1.00, 0.00, -0.00, -1.00, 382.5, 364.5)">j</text><text xml:space="preserve" font-family="Helvetica-Light,Helvetica" font-size="34.6" fill="#FEFFFF" transform="matrix(1.00, 0.00, -0.00, -1.00, 390.2, 364.5)">u</text><text xml:space="preserve" font-family="Helvetica-Light,Helvetica" font-size="34.6" fill="#FEFFFF" transform="matrix(1.00, 0.00, -0.00, -1.00, 409.4, 364.5)">r</text><text xml:space="preserve" font-family="Helvetica-Light,Helvetica" font-size="34.6" fill="#FEFFFF" transform="matrix(1.00, 0.00, -0.00, -1.00, 420.9, 364.5)">v</text><text xml:space="preserve" font-family="Helvetica-Light,Helvetica" font-size="34.6" fill="#FEFFFF" transform="matrix(1.00, 0.00, -0.00, -1.00, 438.2, 364.5)">e</text><text xml:space="preserve" font-family="Helvetica-Light,Helvetica" font-size="34.6" fill="#FEFFFF" transform="matrix(1.00, 0.00, -0.00, -1.00, 457.4, 364.5)">t</text><text xml:space="preserve" font-family="Helvetica-Light,Helvetica" font-size="34.6" fill="#FEFFFF" transform="matrix(1.00, 0.00, -0.00, -1.00, 467.0, 364.5)">s</text><text xml:space="preserve" font-family="Helvetica-Light,Helvetica" font-size="34.6" fill="#FEFFFF" transform="matrix(1.00, 0.00, -0.00, -1.00, 484.3, 364.5)">o</text><text xml:space="preserve" font-family="Helvetica-Light,Helvetica" font-size="34.6" fill="#FEFFFF" transform="matrix(1.00, 0.00, -0.00, -1.00, 503.5, 364.5)">n</text><text xml:space="preserve" font-family="Helvetica-Light,Helvetica" font-size="34.6" fill="#FEFFFF" transform="matrix(1.00, 0.00, -0.00, -1.00, 522.8, 364.5)">/</text><text xml:space="preserve" font-family="Helvetica-Light,Helvetica" font-size="34.6" fill="#FEFFFF" transform="matrix(1.00, 0.00, -0.00, -1.00, 532.4, 364.5)">6</text><text xml:space="preserve" font-family="Helvetica-Light,Helvetica" font-size="34.6" fill="#FEFFFF" transform="matrix(1.00, 0.00, -0.00, -1.00, 551.6, 364.5)">8</text><text xml:space="preserve" font-family="Helvetica-Light,Helvetica" font-size="34.6" fill="#FEFFFF" transform="matrix(1.00, 0.00, -0.00, -1.00, 570.8, 364.5)">5</text><text xml:space="preserve" font-family="Helvetica-Light,Helvetica" font-size="34.6" fill="#FEFFFF" transform="matrix(1.00, 0.00, -0.00, -1.00, 590.1, 364.5)">8</text><text xml:space="preserve" font-family="Helvetica-Light,Helvetica" font-size="34.6" fill="#FEFFFF" transform="matrix(1.00, 0.00, -0.00, -1.00, 609.3, 364.5)">5</text><text xml:space="preserve" font-family="Helvetica-Light,Helvetica" font-size="34.6" fill="#FEFFFF" transform="matrix(1.00, 0.00, -0.00, -1.00, 628.5, 364.5)">8</text><text xml:space="preserve" font-family="Helvetica-Light,Helvetica" font-size="34.6" fill="#FEFFFF" transform="matrix(1.00, 0.00, -0.00, -1.00, 647.7, 364.5)">3</text><text xml:space="preserve" font-family="Helvetica-Light,Helvetica" font-size="34.6" fill="#FEFFFF" transform="matrix(1.00, 0.00, -0.00, -1.00, 667.0, 364.5)">4</text><text xml:space="preserve" font-family="Helvetica-Light,Helvetica" font-size="34.6" fill="#FEFFFF" transform="matrix(1.00, 0.00, -0.00, -1.00, 686.2, 364.5)">2</text><text xml:space="preserve" font-family="Helvetica-Light,Helvetica" font-size="34.6" fill="#FEFFFF" transform="matrix(1.00, 0.00, -0.00, -1.00, 705.4, 364.5)">6</text><text xml:space="preserve" font-family="Helvetica-Light,Helvetica" font-size="34.6" fill="#FEFFFF" transform="matrix(1.00, 0.00, -0.00, -1.00, 724.6, 364.5)">/</text><text xml:space="preserve" font-family="Helvetica-Light,Helvetica" font-size="34.6" fill="#FEFFFF" transform="matrix(1.00, 0.00, -0.00, -1.00, 734.3, 364.5)"> </text><g><clipPath id="clip0x6080026b6500"><path d="M 109.9 360.1 L 734.3 360.1 L 734.3 363.8 L 109.9 363.8 Z M 109.9 360.1 "></path></clipPath><g clip-path="url(#clip0x6080026b6500)"><path d="M 35.9 202.1 L 659.3 202.1 " fill="none" stroke="#FEFFFF" stroke-width="1.73" transform="matrix(1.00, 0.00, 0.00, -1.00, 75.0, 564.0)"></path></g></g><text xml:space="preserve" font-family="Helvetica-Light,Helvetica" font-size="25.9" fill="#FEFFFF" transform="matrix(1.00, 0.00, -0.00, -1.00, 79.0, 287.8)">•</text><text xml:space="preserve" font-family="Helvetica-Light,Helvetica" font-size="34.6" fill="#FEFFFF" transform="matrix(1.00, 0.00, -0.00, -1.00, 110.9, 284.3)">ﬂ</text><text xml:space="preserve" font-family="Helvetica-Light,Helvetica" font-size="34.6" fill="#FEFFFF" transform="matrix(1.00, 0.00, -0.00, -1.00, 128.1, 284.3)">i</text><text xml:space="preserve" font-family="Helvetica-Light,Helvetica" font-size="34.6" fill="#FEFFFF" transform="matrix(1.00, 0.00, -0.00, -1.00, 135.8, 284.3)">c</text><text xml:space="preserve" font-family="Helvetica-Light,Helvetica" font-size="34.6" fill="#FEFFFF" transform="matrix(1.00, 0.00, -0.00, -1.00, 155.0, 284.3)">k</text><text xml:space="preserve" font-family="Helvetica-Light,Helvetica" font-size="34.6" fill="#FEFFFF" transform="matrix(1.00, 0.00, -0.00, -1.00, 172.3, 284.3)">r</text><text xml:space="preserve" font-family="Helvetica-Light,Helvetica" font-size="34.6" fill="#FEFFFF" transform="matrix(1.00, 0.00, -0.00, -1.00, 180.7, 284.3)">.</text><text xml:space="preserve" font-family="Helvetica-Light,Helvetica" font-size="34.6" fill="#FEFFFF" transform="matrix(1.00, 0.00, -0.00, -1.00, 190.3, 284.3)">c</text><text xml:space="preserve" font-family="Helvetica-Light,Helvetica" font-size="34.6" fill="#FEFFFF" transform="matrix(1.00, 0.00, -0.00, -1.00, 209.5, 284.3)">o</text><text xml:space="preserve" font-family="Helvetica-Light,Helvetica" font-size="34.6" fill="#FEFFFF" transform="matrix(1.00, 0.00, -0.00, -1.00, 228.7, 284.3)">m</text><text xml:space="preserve" font-family="Helvetica-Light,Helvetica" font-size="34.6" fill="#FEFFFF" transform="matrix(1.00, 0.00, -0.00, -1.00, 257.5, 284.3)">/</text><text xml:space="preserve" font-family="Helvetica-Light,Helvetica" font-size="34.6" fill="#FEFFFF" transform="matrix(1.00, 0.00, -0.00, -1.00, 267.2, 284.3)">p</text><text xml:space="preserve" font-family="Helvetica-Light,Helvetica" font-size="34.6" fill="#FEFFFF" transform="matrix(1.00, 0.00, -0.00, -1.00, 288.3, 284.3)">h</text><text xml:space="preserve" font-family="Helvetica-Light,Helvetica" font-size="34.6" fill="#FEFFFF" transform="matrix(1.00, 0.00, -0.00, -1.00, 307.5, 284.3)">o</text><text xml:space="preserve" font-family="Helvetica-Light,Helvetica" font-size="34.6" fill="#FEFFFF" transform="matrix(1.00, 0.00, -0.00, -1.00, 326.7, 284.3)">t</text><text xml:space="preserve" font-family="Helvetica-Light,Helvetica" font-size="34.6" fill="#FEFFFF" transform="matrix(1.00, 0.00, -0.00, -1.00, 336.3, 284.3)">o</text><text xml:space="preserve" font-family="Helvetica-Light,Helvetica" font-size="34.6" fill="#FEFFFF" transform="matrix(1.00, 0.00, -0.00, -1.00, 355.6, 284.3)">s</text><text xml:space="preserve" font-family="Helvetica-Light,Helvetica" font-size="34.6" fill="#FEFFFF" transform="matrix(1.00, 0.00, -0.00, -1.00, 372.9, 284.3)">/</text><text xml:space="preserve" font-family="Helvetica-Light,Helvetica" font-size="34.6" fill="#FEFFFF" transform="matrix(1.00, 0.00, -0.00, -1.00, 382.5, 284.3)">l</text><text xml:space="preserve" font-family="Helvetica-Light,Helvetica" font-size="34.6" fill="#FEFFFF" transform="matrix(1.00, 0.00, -0.00, -1.00, 390.2, 284.3)">i</text><text xml:space="preserve" font-family="Helvetica-Light,Helvetica" font-size="34.6" fill="#FEFFFF" transform="matrix(1.00, 0.00, -0.00, -1.00, 397.8, 284.3)">b</text><text xml:space="preserve" font-family="Helvetica-Light,Helvetica" font-size="34.6" fill="#FEFFFF" transform="matrix(1.00, 0.00, -0.00, -1.00, 419.0, 284.3)">e</text><text xml:space="preserve" font-family="Helvetica-Light,Helvetica" font-size="34.6" fill="#FEFFFF" transform="matrix(1.00, 0.00, -0.00, -1.00, 438.2, 284.3)">r</text><text xml:space="preserve" font-family="Helvetica-Light,Helvetica" font-size="34.6" fill="#FEFFFF" transform="matrix(1.00, 0.00, -0.00, -1.00, 449.7, 284.3)">a</text><text xml:space="preserve" font-family="Helvetica-Light,Helvetica" font-size="34.6" fill="#FEFFFF" transform="matrix(1.00, 0.00, -0.00, -1.00, 468.9, 284.3)">t</text><text xml:space="preserve" font-family="Helvetica-Light,Helvetica" font-size="34.6" fill="#FEFFFF" transform="matrix(1.00, 0.00, -0.00, -1.00, 478.5, 284.3)">o</text><text xml:space="preserve" font-family="Helvetica-Light,Helvetica" font-size="34.6" fill="#FEFFFF" transform="matrix(1.00, 0.00, -0.00, -1.00, 497.8, 284.3)">/</text><text xml:space="preserve" font-family="Helvetica-Light,Helvetica" font-size="34.6" fill="#FEFFFF" transform="matrix(1.00, 0.00, -0.00, -1.00, 507.4, 284.3)">2</text><text xml:space="preserve" font-family="Helvetica-Light,Helvetica" font-size="34.6" fill="#FEFFFF" transform="matrix(1.00, 0.00, -0.00, -1.00, 526.6, 284.3)">2</text><text xml:space="preserve" font-family="Helvetica-Light,Helvetica" font-size="34.6" fill="#FEFFFF" transform="matrix(1.00, 0.00, -0.00, -1.00, 545.8, 284.3)">9</text><text xml:space="preserve" font-family="Helvetica-Light,Helvetica" font-size="34.6" fill="#FEFFFF" transform="matrix(1.00, 0.00, -0.00, -1.00, 565.1, 284.3)">2</text><text xml:space="preserve" font-family="Helvetica-Light,Helvetica" font-size="34.6" fill="#FEFFFF" transform="matrix(1.00, 0.00, -0.00, -1.00, 584.3, 284.3)">6</text><text xml:space="preserve" font-family="Helvetica-Light,Helvetica" font-size="34.6" fill="#FEFFFF" transform="matrix(1.00, 0.00, -0.00, -1.00, 603.5, 284.3)">5</text><text xml:space="preserve" font-family="Helvetica-Light,Helvetica" font-size="34.6" fill="#FEFFFF" transform="matrix(1.00, 0.00, -0.00, -1.00, 622.7, 284.3)">1</text><text xml:space="preserve" font-family="Helvetica-Light,Helvetica" font-size="34.6" fill="#FEFFFF" transform="matrix(1.00, 0.00, -0.00, -1.00, 642.0, 284.3)">7</text><text xml:space="preserve" font-family="Helvetica-Light,Helvetica" font-size="34.6" fill="#FEFFFF" transform="matrix(1.00, 0.00, -0.00, -1.00, 661.2, 284.3)">5</text><text xml:space="preserve" font-family="Helvetica-Light,Helvetica" font-size="34.6" fill="#FEFFFF" transform="matrix(1.00, 0.00, -0.00, -1.00, 680.4, 284.3)">5</text><text xml:space="preserve" font-family="Helvetica-Light,Helvetica" font-size="34.6" fill="#FEFFFF" transform="matrix(1.00, 0.00, -0.00, -1.00, 699.6, 284.3)">/</text><text xml:space="preserve" font-family="Helvetica-Light,Helvetica" font-size="34.6" fill="#FEFFFF" transform="matrix(1.00, 0.00, -0.00, -1.00, 709.3, 284.3)"> </text><g><clipPath id="clip0x6080026b5840"><path d="M 109.9 279.8 L 709.3 279.8 L 709.3 283.6 L 109.9 283.6 Z M 109.9 279.8 "></path></clipPath><g clip-path="url(#clip0x6080026b5840)"><path d="M 35.9 282.3 L 634.3 282.3 " fill="none" stroke="#FEFFFF" stroke-width="1.73" transform="matrix(1.00, 0.00, 0.00, -1.00, 75.0, 564.0)"></path></g></g><text xml:space="preserve" font-family="Helvetica-Light,Helvetica" font-size="25.9" fill="#FEFFFF" transform="matrix(1.00, 0.00, -0.00, -1.00, 79.0, 207.6)">•</text><text xml:space="preserve" font-family="Helvetica-Light,Helvetica" font-size="34.6" fill="#FEFFFF" transform="matrix(1.00, 0.00, -0.00, -1.00, 110.9, 204.1)">ﬂ</text><text xml:space="preserve" font-family="Helvetica-Light,Helvetica" font-size="34.6" fill="#FEFFFF" transform="matrix(1.00, 0.00, -0.00, -1.00, 128.1, 204.1)">i</text><text xml:space="preserve" font-family="Helvetica-Light,Helvetica" font-size="34.6" fill="#FEFFFF" transform="matrix(1.00, 0.00, -0.00, -1.00, 135.8, 204.1)">c</text><text xml:space="preserve" font-family="Helvetica-Light,Helvetica" font-size="34.6" fill="#FEFFFF" transform="matrix(1.00, 0.00, -0.00, -1.00, 155.0, 204.1)">k</text><text xml:space="preserve" font-family="Helvetica-Light,Helvetica" font-size="34.6" fill="#FEFFFF" transform="matrix(1.00, 0.00, -0.00, -1.00, 172.3, 204.1)">r</text><text xml:space="preserve" font-family="Helvetica-Light,Helvetica" font-size="34.6" fill="#FEFFFF" transform="matrix(1.00, 0.00, -0.00, -1.00, 180.7, 204.1)">.</text><text xml:space="preserve" font-family="Helvetica-Light,Helvetica" font-size="34.6" fill="#FEFFFF" transform="matrix(1.00, 0.00, -0.00, -1.00, 190.3, 204.1)">c</text><text xml:space="preserve" font-family="Helvetica-Light,Helvetica" font-size="34.6" fill="#FEFFFF" transform="matrix(1.00, 0.00, -0.00, -1.00, 209.5, 204.1)">o</text><text xml:space="preserve" font-family="Helvetica-Light,Helvetica" font-size="34.6" fill="#FEFFFF" transform="matrix(1.00, 0.00, -0.00, -1.00, 228.7, 204.1)">m</text><text xml:space="preserve" font-family="Helvetica-Light,Helvetica" font-size="34.6" fill="#FEFFFF" transform="matrix(1.00, 0.00, -0.00, -1.00, 257.5, 204.1)">/</text><text xml:space="preserve" font-family="Helvetica-Light,Helvetica" font-size="34.6" fill="#FEFFFF" transform="matrix(1.00, 0.00, -0.00, -1.00, 267.2, 204.1)">p</text><text xml:space="preserve" font-family="Helvetica-Light,Helvetica" font-size="34.6" fill="#FEFFFF" transform="matrix(1.00, 0.00, -0.00, -1.00, 288.3, 204.1)">h</text><text xml:space="preserve" font-family="Helvetica-Light,Helvetica" font-size="34.6" fill="#FEFFFF" transform="matrix(1.00, 0.00, -0.00, -1.00, 307.5, 204.1)">o</text><text xml:space="preserve" font-family="Helvetica-Light,Helvetica" font-size="34.6" fill="#FEFFFF" transform="matrix(1.00, 0.00, -0.00, -1.00, 326.7, 204.1)">t</text><text xml:space="preserve" font-family="Helvetica-Light,Helvetica" font-size="34.6" fill="#FEFFFF" transform="matrix(1.00, 0.00, -0.00, -1.00, 336.3, 204.1)">o</text><text xml:space="preserve" font-family="Helvetica-Light,Helvetica" font-size="34.6" fill="#FEFFFF" transform="matrix(1.00, 0.00, -0.00, -1.00, 355.6, 204.1)">s</text><text xml:space="preserve" font-family="Helvetica-Light,Helvetica" font-size="34.6" fill="#FEFFFF" transform="matrix(1.00, 0.00, -0.00, -1.00, 372.9, 204.1)">/</text><text xml:space="preserve" font-family="Helvetica-Light,Helvetica" font-size="34.6" fill="#FEFFFF" transform="matrix(1.00, 0.00, -0.00, -1.00, 382.5, 204.1)">h</text><text xml:space="preserve" font-family="Helvetica-Light,Helvetica" font-size="34.6" fill="#FEFFFF" transform="matrix(1.00, 0.00, -0.00, -1.00, 401.7, 204.1)">e</text><text xml:space="preserve" font-family="Helvetica-Light,Helvetica" font-size="34.6" fill="#FEFFFF" transform="matrix(1.00, 0.00, -0.00, -1.00, 420.9, 204.1)">l</text><text xml:space="preserve" font-family="Helvetica-Light,Helvetica" font-size="34.6" fill="#FEFFFF" transform="matrix(1.00, 0.00, -0.00, -1.00, 428.6, 204.1)">g</text><text xml:space="preserve" font-family="Helvetica-Light,Helvetica" font-size="34.6" fill="#FEFFFF" transform="matrix(1.00, 0.00, -0.00, -1.00, 449.7, 204.1)">a</text><text xml:space="preserve" font-family="Helvetica-Light,Helvetica" font-size="34.6" fill="#FEFFFF" transform="matrix(1.00, 0.00, -0.00, -1.00, 469.0, 204.1)">/</text><text xml:space="preserve" font-family="Helvetica-Light,Helvetica" font-size="34.6" fill="#FEFFFF" transform="matrix(1.00, 0.00, -0.00, -1.00, 478.6, 204.1)">3</text><text xml:space="preserve" font-family="Helvetica-Light,Helvetica" font-size="34.6" fill="#FEFFFF" transform="matrix(1.00, 0.00, -0.00, -1.00, 497.8, 204.1)">9</text><text xml:space="preserve" font-family="Helvetica-Light,Helvetica" font-size="34.6" fill="#FEFFFF" transform="matrix(1.00, 0.00, -0.00, -1.00, 517.0, 204.1)">8</text><text xml:space="preserve" font-family="Helvetica-Light,Helvetica" font-size="34.6" fill="#FEFFFF" transform="matrix(1.00, 0.00, -0.00, -1.00, 536.3, 204.1)">2</text><text xml:space="preserve" font-family="Helvetica-Light,Helvetica" font-size="34.6" fill="#FEFFFF" transform="matrix(1.00, 0.00, -0.00, -1.00, 555.5, 204.1)">6</text><text xml:space="preserve" font-family="Helvetica-Light,Helvetica" font-size="34.6" fill="#FEFFFF" transform="matrix(1.00, 0.00, -0.00, -1.00, 574.7, 204.1)">6</text><text xml:space="preserve" font-family="Helvetica-Light,Helvetica" font-size="34.6" fill="#FEFFFF" transform="matrix(1.00, 0.00, -0.00, -1.00, 593.9, 204.1)">8</text><text xml:space="preserve" font-family="Helvetica-Light,Helvetica" font-size="34.6" fill="#FEFFFF" transform="matrix(1.00, 0.00, -0.00, -1.00, 613.2, 204.1)">5</text><text xml:space="preserve" font-family="Helvetica-Light,Helvetica" font-size="34.6" fill="#FEFFFF" transform="matrix(1.00, 0.00, -0.00, -1.00, 632.4, 204.1)">1</text><text xml:space="preserve" font-family="Helvetica-Light,Helvetica" font-size="34.6" fill="#FEFFFF" transform="matrix(1.00, 0.00, -0.00, -1.00, 651.6, 204.1)">7</text><text xml:space="preserve" font-family="Helvetica-Light,Helvetica" font-size="34.6" fill="#FEFFFF" transform="matrix(1.00, 0.00, -0.00, -1.00, 670.8, 204.1)">/</text><text xml:space="preserve" font-family="Helvetica-Light,Helvetica" font-size="34.6" fill="#FEFFFF" transform="matrix(1.00, 0.00, -0.00, -1.00, 680.5, 204.1)"> </text><g><clipPath id="clip0x6080026b4700"><path d="M 109.9 199.6 L 680.5 199.6 L 680.5 203.3 L 109.9 203.3 Z M 109.9 199.6 "></path></clipPath><g clip-path="url(#clip0x6080026b4700)"><path d="M 35.9 362.5 L 605.5 362.5 " fill="none" stroke="#FEFFFF" stroke-width="1.73" transform="matrix(1.00, 0.00, 0.00, -1.00, 75.0, 564.0)"></path></g></g><text xml:space="preserve" font-family="Helvetica-Light,Helvetica" font-size="25.9" fill="#FEFFFF" transform="matrix(1.00, 0.00, -0.00, -1.00, 79.0, 127.4)">•</text><text xml:space="preserve" font-family="Helvetica-Light,Helvetica" font-size="34.6" fill="#FEFFFF" transform="matrix(1.00, 0.00, -0.00, -1.00, 110.9, 123.9)">h</text><text xml:space="preserve" font-family="Helvetica-Light,Helvetica" font-size="34.6" fill="#FEFFFF" transform="matrix(1.00, 0.00, -0.00, -1.00, 130.1, 123.9)">t</text><text xml:space="preserve" font-family="Helvetica-Light,Helvetica" font-size="34.6" fill="#FEFFFF" transform="matrix(1.00, 0.00, -0.00, -1.00, 139.7, 123.9)">t</text><text xml:space="preserve" font-family="Helvetica-Light,Helvetica" font-size="34.6" fill="#FEFFFF" transform="matrix(1.00, 0.00, -0.00, -1.00, 149.3, 123.9)">p</text><text xml:space="preserve" font-family="Helvetica-Light,Helvetica" font-size="34.6" fill="#FEFFFF" transform="matrix(1.00, 0.00, -0.00, -1.00, 170.4, 123.9)">s</text><text xml:space="preserve" font-family="Helvetica-Light,Helvetica" font-size="34.6" fill="#FEFFFF" transform="matrix(1.00, 0.00, -0.00, -1.00, 187.7, 123.9)">:</text><text xml:space="preserve" font-family="Helvetica-Light,Helvetica" font-size="34.6" fill="#FEFFFF" transform="matrix(1.00, 0.00, -0.00, -1.00, 197.3, 123.9)">/</text><text xml:space="preserve" font-family="Helvetica-Light,Helvetica" font-size="34.6" fill="#FEFFFF" transform="matrix(1.00, 0.00, -0.00, -1.00, 206.9, 123.9)">/</text><text xml:space="preserve" font-family="Helvetica-Light,Helvetica" font-size="34.6" fill="#FEFFFF" transform="matrix(1.00, 0.00, -0.00, -1.00, 216.6, 123.9)">e</text><text xml:space="preserve" font-family="Helvetica-Light,Helvetica" font-size="34.6" fill="#FEFFFF" transform="matrix(1.00, 0.00, -0.00, -1.00, 235.8, 123.9)">n</text><text xml:space="preserve" font-family="Helvetica-Light,Helvetica" font-size="34.6" fill="#FEFFFF" transform="matrix(1.00, 0.00, -0.00, -1.00, 255.0, 123.9)">.</text><text xml:space="preserve" font-family="Helvetica-Light,Helvetica" font-size="34.6" fill="#FEFFFF" transform="matrix(1.00, 0.00, -0.00, -1.00, 264.6, 123.9)">w</text><text xml:space="preserve" font-family="Helvetica-Light,Helvetica" font-size="34.6" fill="#FEFFFF" transform="matrix(1.00, 0.00, -0.00, -1.00, 289.6, 123.9)">i</text><text xml:space="preserve" font-family="Helvetica-Light,Helvetica" font-size="34.6" fill="#FEFFFF" transform="matrix(1.00, 0.00, -0.00, -1.00, 297.3, 123.9)">k</text><text xml:space="preserve" font-family="Helvetica-Light,Helvetica" font-size="34.6" fill="#FEFFFF" transform="matrix(1.00, 0.00, -0.00, -1.00, 314.6, 123.9)">i</text><text xml:space="preserve" font-family="Helvetica-Light,Helvetica" font-size="34.6" fill="#FEFFFF" transform="matrix(1.00, 0.00, -0.00, -1.00, 322.2, 123.9)">p</text><text xml:space="preserve" font-family="Helvetica-Light,Helvetica" font-size="34.6" fill="#FEFFFF" transform="matrix(1.00, 0.00, -0.00, -1.00, 343.4, 123.9)">e</text><text xml:space="preserve" font-family="Helvetica-Light,Helvetica" font-size="34.6" fill="#FEFFFF" transform="matrix(1.00, 0.00, -0.00, -1.00, 362.6, 123.9)">d</text><text xml:space="preserve" font-family="Helvetica-Light,Helvetica" font-size="34.6" fill="#FEFFFF" transform="matrix(1.00, 0.00, -0.00, -1.00, 383.7, 123.9)">i</text><text xml:space="preserve" font-family="Helvetica-Light,Helvetica" font-size="34.6" fill="#FEFFFF" transform="matrix(1.00, 0.00, -0.00, -1.00, 391.4, 123.9)">a</text><text xml:space="preserve" font-family="Helvetica-Light,Helvetica" font-size="34.6" fill="#FEFFFF" transform="matrix(1.00, 0.00, -0.00, -1.00, 410.6, 123.9)">.</text><text xml:space="preserve" font-family="Helvetica-Light,Helvetica" font-size="34.6" fill="#FEFFFF" transform="matrix(1.00, 0.00, -0.00, -1.00, 420.2, 123.9)">o</text><text xml:space="preserve" font-family="Helvetica-Light,Helvetica" font-size="34.6" fill="#FEFFFF" transform="matrix(1.00, 0.00, -0.00, -1.00, 439.5, 123.9)">r</text><text xml:space="preserve" font-family="Helvetica-Light,Helvetica" font-size="34.6" fill="#FEFFFF" transform="matrix(1.00, 0.00, -0.00, -1.00, 451.0, 123.9)">g</text><text xml:space="preserve" font-family="Helvetica-Light,Helvetica" font-size="34.6" fill="#FEFFFF" transform="matrix(1.00, 0.00, -0.00, -1.00, 472.1, 123.9)">/</text><text xml:space="preserve" font-family="Helvetica-Light,Helvetica" font-size="34.6" fill="#FEFFFF" transform="matrix(1.00, 0.00, -0.00, -1.00, 481.7, 123.9)">w</text><text xml:space="preserve" font-family="Helvetica-Light,Helvetica" font-size="34.6" fill="#FEFFFF" transform="matrix(1.00, 0.00, -0.00, -1.00, 506.7, 123.9)">i</text><text xml:space="preserve" font-family="Helvetica-Light,Helvetica" font-size="34.6" fill="#FEFFFF" transform="matrix(1.00, 0.00, -0.00, -1.00, 514.4, 123.9)">k</text><text xml:space="preserve" font-family="Helvetica-Light,Helvetica" font-size="34.6" fill="#FEFFFF" transform="matrix(1.00, 0.00, -0.00, -1.00, 531.7, 123.9)">i</text><text xml:space="preserve" font-family="Helvetica-Light,Helvetica" font-size="34.6" fill="#FEFFFF" transform="matrix(1.00, 0.00, -0.00, -1.00, 539.3, 123.9)">/</text><text xml:space="preserve" font-family="Helvetica-Light,Helvetica" font-size="34.6" fill="#FEFFFF" transform="matrix(1.00, 0.00, -0.00, -1.00, 548.9, 123.9)">M</text><text xml:space="preserve" font-family="Helvetica-Light,Helvetica" font-size="34.6" fill="#FEFFFF" transform="matrix(1.00, 0.00, -0.00, -1.00, 577.7, 123.9)">a</text><text xml:space="preserve" font-family="Helvetica-Light,Helvetica" font-size="34.6" fill="#FEFFFF" transform="matrix(1.00, 0.00, -0.00, -1.00, 597.0, 123.9)">l</text><text xml:space="preserve" font-family="Helvetica-Light,Helvetica" font-size="34.6" fill="#FEFFFF" transform="matrix(1.00, 0.00, -0.00, -1.00, 604.7, 123.9)">t</text><text xml:space="preserve" font-family="Helvetica-Light,Helvetica" font-size="34.6" fill="#FEFFFF" transform="matrix(1.00, 0.00, -0.00, -1.00, 614.3, 123.9)">e</text><text xml:space="preserve" font-family="Helvetica-Light,Helvetica" font-size="34.6" fill="#FEFFFF" transform="matrix(1.00, 0.00, -0.00, -1.00, 633.5, 123.9)">s</text><text xml:space="preserve" font-family="Helvetica-Light,Helvetica" font-size="34.6" fill="#FEFFFF" transform="matrix(1.00, 0.00, -0.00, -1.00, 650.8, 123.9)">e</text><text xml:space="preserve" font-family="Helvetica-Light,Helvetica" font-size="34.6" fill="#FEFFFF" transform="matrix(1.00, 0.00, -0.00, -1.00, 670.0, 123.9)">_</text><text xml:space="preserve" font-family="Helvetica-Light,Helvetica" font-size="34.6" fill="#FEFFFF" transform="matrix(1.00, 0.00, -0.00, -1.00, 687.3, 123.9)">t</text><text xml:space="preserve" font-family="Helvetica-Light,Helvetica" font-size="34.6" fill="#FEFFFF" transform="matrix(1.00, 0.00, -0.00, -1.00, 696.9, 123.9)">i</text><text xml:space="preserve" font-family="Helvetica-Light,Helvetica" font-size="34.6" fill="#FEFFFF" transform="matrix(1.00, 0.00, -0.00, -1.00, 704.6, 123.9)">g</text><text xml:space="preserve" font-family="Helvetica-Light,Helvetica" font-size="34.6" fill="#FEFFFF" transform="matrix(1.00, 0.00, -0.00, -1.00, 725.7, 123.9)">e</text><text xml:space="preserve" font-family="Helvetica-Light,Helvetica" font-size="34.6" fill="#FEFFFF" transform="matrix(1.00, 0.00, -0.00, -1.00, 744.9, 123.9)">r</text><text xml:space="preserve" font-family="Helvetica-Light,Helvetica" font-size="34.6" fill="#FEFFFF" transform="matrix(1.00, 0.00, -0.00, -1.00, 756.5, 123.9)">#</text><text xml:space="preserve" font-family="Helvetica-Light,Helvetica" font-size="34.6" fill="#FEFFFF" transform="matrix(1.00, 0.00, -0.00, -1.00, 775.7, 123.9)">/</text><text xml:space="preserve" font-family="Helvetica-Light,Helvetica" font-size="34.6" fill="#FEFFFF" transform="matrix(1.00, 0.00, -0.00, -1.00, 785.3, 123.9)">m</text><text xml:space="preserve" font-family="Helvetica-Light,Helvetica" font-size="34.6" fill="#FEFFFF" transform="matrix(1.00, 0.00, -0.00, -1.00, 814.1, 123.9)">e</text><text xml:space="preserve" font-family="Helvetica-Light,Helvetica" font-size="34.6" fill="#FEFFFF" transform="matrix(1.00, 0.00, -0.00, -1.00, 833.3, 123.9)">d</text><text xml:space="preserve" font-family="Helvetica-Light,Helvetica" font-size="34.6" fill="#FEFFFF" transform="matrix(1.00, 0.00, -0.00, -1.00, 854.5, 123.9)">i</text><text xml:space="preserve" font-family="Helvetica-Light,Helvetica" font-size="34.6" fill="#FEFFFF" transform="matrix(1.00, 0.00, -0.00, -1.00, 862.1, 123.9)">a</text><text xml:space="preserve" font-family="Helvetica-Light,Helvetica" font-size="34.6" fill="#FEFFFF" transform="matrix(1.00, 0.00, -0.00, -1.00, 881.4, 123.9)">/</text><g><clipPath id="clip0x6080026b3020"><path d="M 109.9 119.4 L 891.0 119.4 L 891.0 123.1 L 109.9 123.1 Z M 109.9 119.4 "></path></clipPath><g clip-path="url(#clip0x6080026b3020)"><path d="M 35.9 442.7 L 816.0 442.7 " fill="none" stroke="#FEFFFF" stroke-width="1.73" transform="matrix(1.00, 0.00, 0.00, -1.00, 75.0, 564.0)"></path></g></g><text xml:space="preserve" font-family="Helvetica-Light,Helvetica" font-size="34.6" fill="#FEFFFF" transform="matrix(1.00, 0.00, -0.00, -1.00, 110.9, 81.9)">F</text><text xml:space="preserve" font-family="Helvetica-Light,Helvetica" font-size="34.6" fill="#FEFFFF" transform="matrix(1.00, 0.00, -0.00, -1.00, 130.1, 81.9)">i</text><text xml:space="preserve" font-family="Helvetica-Light,Helvetica" font-size="34.6" fill="#FEFFFF" transform="matrix(1.00, 0.00, -0.00, -1.00, 137.8, 81.9)">l</text><text xml:space="preserve" font-family="Helvetica-Light,Helvetica" font-size="34.6" fill="#FEFFFF" transform="matrix(1.00, 0.00, -0.00, -1.00, 145.4, 81.9)">e</text><text xml:space="preserve" font-family="Helvetica-Light,Helvetica" font-size="34.6" fill="#FEFFFF" transform="matrix(1.00, 0.00, -0.00, -1.00, 164.7, 81.9)">:</text><text xml:space="preserve" font-family="Helvetica-Light,Helvetica" font-size="34.6" fill="#FEFFFF" transform="matrix(1.00, 0.00, -0.00, -1.00, 174.3, 81.9)">W</text><text xml:space="preserve" font-family="Helvetica-Light,Helvetica" font-size="34.6" fill="#FEFFFF" transform="matrix(1.00, 0.00, -0.00, -1.00, 205.0, 81.9)">h</text><text xml:space="preserve" font-family="Helvetica-Light,Helvetica" font-size="34.6" fill="#FEFFFF" transform="matrix(1.00, 0.00, -0.00, -1.00, 224.2, 81.9)">i</text><text xml:space="preserve" font-family="Helvetica-Light,Helvetica" font-size="34.6" fill="#FEFFFF" transform="matrix(1.00, 0.00, -0.00, -1.00, 231.9, 81.9)">t</text><text xml:space="preserve" font-family="Helvetica-Light,Helvetica" font-size="34.6" fill="#FEFFFF" transform="matrix(1.00, 0.00, -0.00, -1.00, 241.5, 81.9)">e</text><text xml:space="preserve" font-family="Helvetica-Light,Helvetica" font-size="34.6" fill="#FEFFFF" transform="matrix(1.00, 0.00, -0.00, -1.00, 260.8, 81.9)">_</text><text xml:space="preserve" font-family="Helvetica-Light,Helvetica" font-size="34.6" fill="#FEFFFF" transform="matrix(1.00, 0.00, -0.00, -1.00, 278.0, 81.9)">t</text><text xml:space="preserve" font-family="Helvetica-Light,Helvetica" font-size="34.6" fill="#FEFFFF" transform="matrix(1.00, 0.00, -0.00, -1.00, 287.7, 81.9)">i</text><text xml:space="preserve" font-family="Helvetica-Light,Helvetica" font-size="34.6" fill="#FEFFFF" transform="matrix(1.00, 0.00, -0.00, -1.00, 295.3, 81.9)">g</text><text xml:space="preserve" font-family="Helvetica-Light,Helvetica" font-size="34.6" fill="#FEFFFF" transform="matrix(1.00, 0.00, -0.00, -1.00, 316.5, 81.9)">e</text><text xml:space="preserve" font-family="Helvetica-Light,Helvetica" font-size="34.6" fill="#FEFFFF" transform="matrix(1.00, 0.00, -0.00, -1.00, 335.7, 81.9)">r</text><text xml:space="preserve" font-family="Helvetica-Light,Helvetica" font-size="34.6" fill="#FEFFFF" transform="matrix(1.00, 0.00, -0.00, -1.00, 344.0, 81.9)">.</text><text xml:space="preserve" font-family="Helvetica-Light,Helvetica" font-size="34.6" fill="#FEFFFF" transform="matrix(1.00, 0.00, -0.00, -1.00, 353.6, 81.9)">J</text><text xml:space="preserve" font-family="Helvetica-Light,Helvetica" font-size="34.6" fill="#FEFFFF" transform="matrix(1.00, 0.00, -0.00, -1.00, 370.9, 81.9)">P</text><text xml:space="preserve" font-family="Helvetica-Light,Helvetica" font-size="34.6" fill="#FEFFFF" transform="matrix(1.00, 0.00, -0.00, -1.00, 392.1, 81.9)">G</text><g><clipPath id="clip0x6080026b2540"><path d="M 109.9 77.4 L 419.0 77.4 L 419.0 81.1 L 109.9 81.1 Z M 109.9 77.4 "></path></clipPath><g clip-path="url(#clip0x6080026b2540)"><path d="M 35.9 484.7 L 344.0 484.7 " fill="none" stroke="#FEFFFF" stroke-width="1.73" transform="matrix(1.00, 0.00, 0.00, -1.00, 75.0, 564.0)"></path></g></g></g></svg>